<?xml version="1.0" encoding="utf-8"?>
<!-- Generator: Adobe Illustrator 23.0.1, SVG Export Plug-In . SVG Version: 6.00 Build 0)  -->
<svg version="1.1" id="OBJECTS" xmlns="http://www.w3.org/2000/svg" xmlns:xlink="http://www.w3.org/1999/xlink" x="0px" y="0px"
	 viewBox="0 0 750 500" style="enable-background:new 0 0 750 500;" xml:space="preserve">
<style type="text/css">
	.st0{clip-path:url(#XMLID_3_);}
	.st1{opacity:0.18;fill:#B3E5B7;}
	.st2{fill:#FFFFFF;}
	.st3{fill:#B3E5B7;}
	.st4{fill:#9DD7A4;}
	.st5{fill:#C6F4C8;}
	.st6{fill:#F5FD9A;}
	.st7{fill:#5D2043;}
	.st8{opacity:0.56;fill:#5D2043;}
	.st9{fill:#7E4CBF;}
	.st10{opacity:0.22;fill:#7E4CBF;}
	.st11{fill:#B29AD2;}
	.st12{fill:#AB6D50;}
	.st13{opacity:0.3;}
	.st14{opacity:0.14;fill:#CD3F18;}
	.st15{opacity:0.04;fill:#CD3F18;}
	.st16{opacity:0.14;}
	.st17{fill:#CD3F18;}
	.st18{opacity:0.46;clip-path:url(#XMLID_7_);fill:#AB6D50;}
	.st19{opacity:0.46;clip-path:url(#XMLID_8_);fill:#AB6D50;}
	.st20{opacity:0.22;clip-path:url(#XMLID_11_);fill:#7E4CBF;}
	.st21{fill:#D9A7FF;}
	.st22{opacity:0.22;clip-path:url(#XMLID_12_);fill:#7E4CBF;}
	.st23{opacity:0.31;clip-path:url(#XMLID_12_);}
	.st24{opacity:0.29;fill:#D9A7FF;}
	.st25{opacity:0.41;fill:#5D2043;}
	.st26{clip-path:url(#XMLID_13_);fill:#AB6D50;}
	.st27{opacity:0.3;clip-path:url(#XMLID_14_);fill:#AB6D50;}
	.st28{opacity:0.17;}
	.st29{opacity:0.31;clip-path:url(#XMLID_15_);fill:#D9A7FF;}
	.st30{opacity:0.3;fill:#AB6D50;}
	.st31{opacity:0.17;fill:#CD3F18;}
	.st32{opacity:0.23;fill:#7E4CBF;}
	.st33{opacity:0.57;fill:#7E4CBF;}
	.st34{opacity:0.12;fill:#7E4CBF;}
	.st35{opacity:0.31;fill:#CD3F18;}
	.st36{opacity:0.07;fill:#CD3F18;}
	.st37{opacity:0.49;fill:#7E4CBF;}
	.st38{opacity:0.26;fill:#7E4CBF;}
	.st39{opacity:0.83;fill:#FFFFFF;}
	.st40{fill:#EAA98A;}
</style>
<g>
	<g>
		<g>
			<defs>
				<path id="XMLID_1_" d="M602.46,367.09c-0.98,15.6,43.81,30.84,19.84,77.2H149.33c-10.26-4.68-27.03-25.22-39.65-48.01
					c-38.31-69.21,18.32-69.19,26.05-87.91c4.49-10.87-14.25-47.06-23.78-86.4c-0.92-3.82-1.76-7.68-2.43-11.56
					c-1.75-9.87-2.56-19.88-1.52-29.63c0.94-8.93,3.43-17.67,8.14-25.88c7.08-12.32,25.42-30.53,45.12-27.05
					c14.81,2.61,40.84,13.49,72.87-1.68s51.41-72.89,90.59-68.26c37.85,4.48,64.46,47.43,105.42,58.56
					c46.01,12.5,82.22-16.96,122.46-11.7c39.11,5.12,47.64,49.05,30.71,68.36c-18.28,20.84-20.71,44.69-0.73,57.02
					c19.98,12.33,65.29,8.54,70.6,41.76C658.49,305.12,604.82,329.5,602.46,367.09z"/>
			</defs>
			<use xlink:href="#XMLID_1_"  style="overflow:visible;opacity:0.38;fill:#B3E5B7;"/>
			<clipPath id="XMLID_3_">
				<use xlink:href="#XMLID_1_"  style="overflow:visible;opacity:0.38;"/>
			</clipPath>
			<g class="st0">
				<path class="st1" d="M399.91,452.77c9.92,0.53,19.82,1.03,29.73,1.75c22.95,1.67,45.9,3.29,68.89,4.25
					c22.74,0.95,45.5,1.3,68.24,0.23c14.11-0.66,28.2-1.71,42.24-3.16c1.08-0.74,2.13-1.5,3.15-2.28
					c63.16-48.14,79.04-144.14,70.35-214.91c-4.52-36.84-20.1-70.84-42.15-99.27c-22.25-28.7-51.16-52.21-83.1-71.66
					c-8.18-4.98-16.71-9.77-26.23-12.15c-3.07-0.77-6.56-1.23-9.4,0.4c-4.13,2.37-4.84,7.77-4.87,12.32
					c-0.23,30.55,7.27,60.27,8.63,90.88c3.52,79.63-35.25,162.33-87.63,236.06c-8.03,11.3-16.5,22.51-26.12,32.93
					c-8.17,8.84-18.08,15.43-26.95,23.37C389.74,452.15,394.84,452.5,399.91,452.77z"/>
				<g>
					<g>
						<rect x="171.98" y="58.83" class="st2" width="92.56" height="85.47"/>
						<rect x="272.14" y="58.83" class="st2" width="92.56" height="85.47"/>
						<rect x="171.98" y="150.6" class="st2" width="92.56" height="85.47"/>
						<rect x="272.14" y="150.6" class="st2" width="92.56" height="85.47"/>
					</g>
					<path class="st3" d="M229.26,54.95c0,0-14.2,86.53-52.56,172.28c0,0,27.86,86.01,33.35,221.84l-46.03,0.87v-395H229.26z"/>
					<path class="st3" d="M301.24,54.95c0,0,14.2,86.53,52.56,172.28c0,0-27.86,86.01-33.35,221.84l46.03,0.87v-395H301.24z"/>
				</g>
			</g>
			<g class="st0">
				<g>
					<polygon class="st4" points="402.61,445.35 389.74,445.35 389.74,434 410.4,434 					"/>
					<polygon class="st4" points="486.61,445.35 499.48,445.35 499.48,434 478.82,434 					"/>
				</g>
				<rect x="385.24" y="377.06" class="st5" width="118.75" height="61.51"/>
				<path class="st5" d="M475.42,358.72H413.8c-15.77,0-28.56,10.62-28.56,23.73h118.75C503.98,369.34,491.2,358.72,475.42,358.72z"
					/>
				<path class="st4" d="M502.94,382.77H386.28c-1.56,0-2.83-1.27-2.83-2.83l0,0c0-1.56,1.27-2.83,2.83-2.83h116.67
					c1.56,0,2.83,1.27,2.83,2.83l0,0C505.77,381.5,504.5,382.77,502.94,382.77z"/>
				<g>
					<path class="st4" d="M460.13,405.04h-31.04c-1.64,0-2.97-1.33-2.97-2.97v-10.65c0-1.64,1.33-2.97,2.97-2.97h31.04
						c1.64,0,2.97,1.33,2.97,2.97v10.65C463.1,403.71,461.77,405.04,460.13,405.04z"/>
					<g>
						<path class="st3" d="M439.12,391.84c-0.59-0.14-1.27-0.02-1.87,0c-0.29,0.01-0.58,0.03-0.87,0.04
							c-0.01-0.12-0.02-0.23-0.03-0.35c-0.04-0.36-0.55-0.38-0.57,0c-0.01,0.13-0.01,0.25-0.01,0.38c-0.11,0.01-0.23,0.01-0.34,0.02
							c-1.24,0.07-2.49,0.15-3.72,0.28c-0.26,0.03-0.27,0.39,0,0.41c1.24,0.08,2.48,0.11,3.72,0.13c0.1,0,0.21,0,0.31,0
							c-0.04,1.17-0.06,2.34-0.08,3.52c-0.01,0.77-0.02,1.55-0.03,2.32c-0.01,0.4-0.03,0.82-0.04,1.23
							c-0.07,0.01-0.14,0.05-0.16,0.13c-0.12,0.47,0.06,0.95,0.28,1.36c0.31,0.58,1.06,0.24,1.13-0.31c0.1-0.78,0.01-1.63-0.01-2.41
							c-0.02-0.77-0.04-1.55-0.09-2.32c-0.06-1.17-0.15-2.34-0.27-3.51c0.26,0,0.52,0.01,0.78,0.01c0.6,0,1.29,0.09,1.87-0.07
							C439.53,392.58,439.55,391.94,439.12,391.84z"/>
						<path class="st3" d="M444.23,395.25c-0.17-0.73-0.48-1.57-1.03-2.09c-0.52-0.49-1.44-0.71-1.98-0.12
							c-0.08,0.08-0.11,0.2-0.12,0.32c-0.1,0.13-0.19,0.27-0.26,0.41c-0.28,0.6-0.48,1.28-0.64,1.93c-0.32,1.31-0.42,2.82,0.32,4.02
							c0.36,0.59,0.93,1.11,1.67,1.02c0.64-0.07,1.14-0.56,1.47-1.08C444.46,398.4,444.57,396.67,444.23,395.25z M443.37,397.96
							c-0.16,0.7-0.9,2.66-1.87,1.65c-0.77-0.8-0.84-2.04-0.71-3.08c0.08-0.62,0.22-1.23,0.37-1.83c0.06-0.24,0.13-0.6,0.26-0.91
							c0.22,0.05,0.37-0.08,0.59-0.11c0.48-0.07,0.76,0.44,0.95,0.8C443.48,395.54,443.62,396.81,443.37,397.96z"/>
						<path class="st3" d="M448.45,390.97c-0.05-0.23-0.43-0.18-0.41,0.06c0.09,1.21-0.1,2.38-0.38,3.53
							c-0.08-0.09-0.17-0.19-0.25-0.28c-0.29-0.34-0.58-0.68-0.84-1.04c-0.55-0.73-1.05-1.51-1.48-2.33
							c-0.11-0.21-0.47-0.07-0.39,0.17c0.31,0.91,0.68,1.79,1.15,2.63c0.23,0.41,0.48,0.81,0.75,1.2c0.14,0.2,0.29,0.4,0.45,0.6
							c0.09,0.11,0.18,0.23,0.27,0.33c-0.07,0.24-0.14,0.48-0.21,0.73c-0.25,0.87-0.52,1.75-0.69,2.64
							c-0.16,0.83-0.45,1.94-0.1,2.74c0.18,0.41,0.85,0.28,0.94-0.12c0.09-0.38,0.27-0.72,0.36-1.1c0.03-0.13-0.09-0.28-0.22-0.26
							c0-0.01,0-0.02,0-0.03c0.04-0.49,0.13-0.97,0.22-1.46c0.17-0.9,0.39-1.79,0.58-2.68c0.02-0.1,0.04-0.2,0.06-0.3
							c0.01-0.01,0.03-0.02,0.04-0.04c0.1-0.13,0.11-0.31,0.06-0.48C448.64,393.98,448.78,392.47,448.45,390.97z"/>
						<path class="st3" d="M453.89,397.81c-0.06-0.62-0.25-1.22-0.56-1.76c-0.31-0.55-0.75-1.01-1.09-1.53
							c-0.28-0.43-0.58-1.02-0.35-1.54c0.19-0.45,0.57-0.56,1.01-0.59c0.11-0.01,0.23-0.11,0.18-0.24c-0.16-0.42-0.69-0.57-1.1-0.51
							c-0.5,0.08-0.93,0.37-1.16,0.82c-0.64,1.25,0.27,2.55,1.03,3.48c0.68,0.84,1.36,2.1,0.76,3.17c-0.45,0.8-1.45,0.98-2.25,0.65
							c-0.18-0.08-0.32,0.16-0.24,0.31c0.48,0.87,1.65,0.83,2.43,0.45C453.55,400.03,453.99,398.88,453.89,397.81z"/>
					</g>
				</g>
			</g>
		</g>
		<g>
			<g>
				<g>
					<path class="st4" d="M590.3,319.76c-1.87-0.23-2.72-4.39-2.87-5.73c-0.3-2.73,0.03-5.58,0.76-8.19
						c1.81-6.5,6.92-12.32,12.03-16.46c4.96-4.01,10.61-6.82,15.31-10.96c2.25-1.98,4.1-5.56,6.5-7.02
						c0.68,11.78-3.78,21.49-10.54,30.77c-5.11,7.01-12.31,12.92-20.19,17.35C590.95,319.73,590.61,319.79,590.3,319.76z"/>
					<path class="st4" d="M582.76,321.33c-4.45,1.45-8.72-4.62-10.87-7.66c-1.72-2.44-3.27-5.01-5.29-7.24
						c-2.02-2.24-4.61-4.16-7.61-4.79c0.48,0.1,2.15-0.74,4.71-0.06c1.52,0.4,3.02,0.78,4.49,1.35c3.09,1.2,5.97,2.95,8.3,5.26
						C579.71,311.35,583.19,316.72,582.76,321.33z"/>
					<path class="st4" d="M638.66,237.11c-3.54,1.21-7.33,1.88-10.92,3.19c-3.06,1.12-6.22,2.12-9.19,3.5
						c-5.08,2.36-9.63,5.76-13.55,9.74c-4.81,4.88-8.82,10.6-11.27,17.18c-1.69,4.56-4.98,11.17-3.35,16.25
						c0.14-2.36,5.74-3.1,7.57-3.97c3.97-1.88,8-3.76,11.5-6.24c6.59-4.66,11.9-10.53,16.46-16.81c4.18-5.75,6.88-12.09,10.15-18.14
						C636.78,240.49,638.64,238.49,638.66,237.11z"/>
					<path class="st4" d="M584.98,211.41c-0.83,7.77-5.93,13.74-8.71,20.84c-2.15,5.48-3.67,10.95-3.27,17.12
						c0.32,4.94,1.65,10.13,4.81,14.43c1.34,1.81,3.04,3.37,4.44,5.13c1.19,1.49,2.52,3.18,3.81,4.58c0.08-2.77,0.6-5.62,0.97-8.36
						c0.5-3.67,0.9-7.24,0.8-10.98c-0.15-5.51-0.38-11.04-0.94-16.53c-0.67-6.56-1.78-13.26-1.53-19.66
						C585.45,216.12,585.82,213.07,584.98,211.41z"/>
					<path class="st4" d="M616.98,212.14c-3.4,3.67-8.1,6.12-11.97,9.44c-2.95,2.53-5.42,5.89-7.15,9.41
						c-1.45,2.96-2.24,6.48-1.77,9.95c0.19,1.42,0.43,3.98,1.56,5.1c5.75-4.49,10.54-9.93,13.62-16.5c2.02-4.31,3.14-9.1,4.89-13.41
						C616.66,214.9,617.34,213.61,616.98,212.14z"/>
					<path class="st4" d="M555.69,252.25c3.48,5.86,6.21,13.38,6.91,19.86c0.49,4.53,1.12,9.07,2.33,13.52
						c1.34,4.93,3.88,9.11,7.98,12.59c2.18,1.86,5.82,4.48,8.88,4.14c1.9-3.66,1.95-10.2,1.45-14.25c-0.6-4.94-2.75-9.72-5-14.3
						c-3.48-7.1-8.61-12.66-15.24-17.52C560.7,254.59,557.65,253.89,555.69,252.25z"/>
				</g>
				<path class="st3" d="M627.77,245.91c-4.22,2.27-8.2,5.2-12,8.21c-3.86,3.05-7.53,6.4-10.93,10.07
					c-6.89,7.43-12.64,16.21-16.31,26.08c-1.65,4.45-2.82,9.06-3.53,13.8c0.02-3.57,0.26-7.12,0.72-10.62
					c0.78-5.96,2.14-11.78,3.83-17.44c1.68-5.62,3.78-11.01,5.79-16.42c1.07-2.9,1.92-5.64,2.45-8.72c0.36-2.07,0.04-2.38,0.52-6.47
					c1.67-7.73,4.73-14.93,9.26-21.08c1.72-2.33,3.63-4.5,5.63-6.55c0.14-0.14-0.07-0.42-0.23-0.28
					c-7.35,6.42-12.38,15.78-14.73,25.74c-0.31,1.78-1.15,6.64-1.25,9.07c-0.5,2.25-1.21,4.43-2.01,6.58
					c-2.03,5.44-4.24,10.83-5.99,16.46c-1.01,3.24-1.89,6.55-2.64,9.9c0.44-6.91,0-13.95-1.04-20.82
					c-1.29-8.47-3.95-16.84-4.35-25.33c-0.11-2.23-0.06-4.46,0.22-6.64c0.3-2.35,0.97-4.51,1.56-6.75c0.05-0.19-0.24-0.4-0.35-0.2
					c-1.87,3.21-2.26,7.49-2.28,11.29c-0.02,4.15,0.6,8.33,1.41,12.47c0.84,4.27,1.87,8.52,2.68,12.8c0.83,4.37,1.37,8.78,1.62,13.2
					c0.24,4.13,0.18,8.25,0,12.37c-1.41,7.04-2.14,14.27-1.8,21.58c-0.11-0.4-0.21-0.8-0.32-1.2c-0.31-1.11-0.63-2.22-0.98-3.32
					c-0.35-1.08-0.63-2.32-1.21-3.31c-0.02-0.03-0.05-0.05-0.07-0.07c-2.68-9.49-6.44-18.79-10.89-27.74
					c-1.36-2.74-2.73-5.55-4.46-8.13c-0.11-0.16-0.36-0.07-0.27,0.11c1.11,2.42,2.44,4.76,3.64,7.14c1.2,2.38,2.35,4.78,3.44,7.2
					c2.19,4.86,4.19,9.78,5.95,14.76c0.84,2.37,1.63,4.76,2.41,7.15c0.15,1.01,0.52,2.02,0.79,3c0.31,1.11,0.63,2.22,0.92,3.33
					c0.49,1.82,0.93,3.66,1.36,5.49c0.22,2.12,0.52,4.23,0.95,6.32c0.41,2.01,0.89,4.09,1.55,6.09c0.09,0.42,0.18,0.84,0.27,1.27
					c-0.83-0.86-1.63-1.75-2.36-2.73c-1.92-2.58-3.23-5.45-4.81-8.23c-2.74-4.82-6.84-8.86-11.9-11.43
					c-0.1-0.05-0.18,0.11-0.09,0.17c5.24,3.08,9.37,7.43,12.05,12.72c2.05,4.05,4.39,8.31,7.8,11.42c0,0.14,0,0.29,0.01,0.43
					c0.01,0.07,0.09,0.07,0.13,0.03c0.11-0.64,0.27-1.24,0.45-1.82c0-0.01-0.01-0.03-0.01-0.04c0.15-0.85,0.26-1.7,0.45-2.53
					c0.33-1.46,0.74-2.89,1.22-4.29c0.98-2.84,2.26-5.56,3.71-8.17c2.84-5.11,6.23-9.86,9.96-14.21c2.16-2.52,4.47-4.87,6.74-7.23
					c0.14-0.15-0.06-0.4-0.22-0.26c-4.43,3.71-8.27,8.31-11.72,13.08c-3.49,4.83-6.65,10.05-8.73,15.78
					c-0.57,1.58-1.05,3.19-1.43,4.84c-0.12,0.52-0.24,1.07-0.34,1.63c-0.23-0.84-0.47-1.68-0.71-2.53
					c-0.42-2.68-1.01-5.34-1.62-7.97c-0.18-1.29-0.34-2.58-0.45-3.87c-0.13-1.51-0.21-3.03-0.25-4.55c0.37-2.26,0.73-4.51,1.23-6.74
					c0.58-2.6,1.31-5.15,2.17-7.64c1.73-5,4.01-9.75,6.7-14.19c5.28-8.71,12.13-16.13,19.73-22.35c2.09-1.71,4.24-3.33,6.44-4.87
					c2.22-1.56,4.52-2.97,6.73-4.48C628.16,246.13,627.96,245.81,627.77,245.91z"/>
			</g>
			<g>
				<g>
					<path class="st6" d="M606.92,371.96c-0.02-0.02-0.05-0.04-0.07-0.06c-16.91-13.97-10.01-47.44-10.01-47.44h-2.4h-14.83h-2.4
						c0,0,6.91,33.47-10.01,47.44c-0.02,0.02-0.05,0.04-0.07,0.06c-6.78,5.06-10.91,13.22-10.85,24.4c0,1.2,0.04,2.42,0.14,3.69
						c0.68,8.23,3.38,16.6,7.26,23.58c3.39,6.1,10.77,12.79,11.01,19.33v0h0.01h24.64h0.01v0c0.25-6.54,7.62-13.23,11.01-19.33
						c3.88-6.98,6.58-15.35,7.26-23.58c0.1-1.27,0.14-2.5,0.14-3.69C617.82,385.18,613.7,377.01,606.92,371.96z"/>
					<path class="st3" d="M598.55,326.56h-23.05c-0.61,0-1.1-0.49-1.1-1.1v-1.07c0-0.61,0.49-1.1,1.1-1.1h23.05
						c0.61,0,1.1,0.49,1.1,1.1v1.07C599.65,326.06,599.16,326.56,598.55,326.56z"/>
					<path class="st3" d="M600.09,441.43h-26.14c-0.53,0-0.96,0.43-0.96,0.96v0.94c0,0.53,0.43,0.96,0.96,0.96h26.14
						c0.53,0,0.96-0.43,0.96-0.96v-0.94C601.05,441.86,600.62,441.43,600.09,441.43z"/>
				</g>
			</g>
		</g>
		<g>
			<g>
				<rect x="512.26" y="131.88" class="st3" width="40.81" height="48.8"/>
				<rect x="517.23" y="136.92" class="st2" width="30.88" height="38.73"/>
				<path class="st6" d="M539.79,147.68c-0.8,1.59-2.75,2.15-4.51,1.8c-1.81-0.36-2.98-1.62-4.11-2.96
					c-0.49-0.58-1.03-1.2-1.84-1.21c-0.98-0.01-2.01,0.64-2.72,1.26c-2.93,2.53-2.44,6.86-2.89,10.33
					c-0.17,1.28-0.42,3.22-1.81,3.78c-0.36,0.14-0.69,0.15-1,0.09v10.56c0.08,0.09,0.16,0.17,0.25,0.25h2.67
					c0.92-0.55,1.71-1.35,2.29-2.23c1.61-2.45,1.91-5.58,2.78-8.33c0.71-2.23,1.86-4.5,3.85-5.85c0.88-0.6,1.94-0.82,2.89-0.24
					c2.01,1.22,2.73,4.17,3.73,6.14c0.47,0.92,1.04,2.09,2.01,2.57c1.08,0.54,2.25-0.25,3.04-0.96V141
					C544.43,141,543.1,141.11,539.79,147.68z"/>
				<path class="st6" d="M542.78,165.03c-2.62,0.53-4.03-2.27-4.94-4.23c-0.55-1.18-1.02-2.42-1.66-3.55
					c-0.39-0.69-0.98-1.65-1.9-1.57c-0.54,0.05-1.03,0.42-1.43,0.76c-1.06,0.9-1.85,2.06-2.43,3.32c-1.16,2.55-1.52,5.38-2.58,7.98
					c-0.6,1.47-1.52,2.85-2.78,3.83h19.37v-7.25C543.93,164.65,543.39,164.9,542.78,165.03z"/>
			</g>
			<g>
				<rect x="458.08" y="167.05" class="st3" width="40.81" height="48.8"/>
				<rect x="463.04" y="172.08" class="st2" width="30.88" height="38.73"/>
				<path class="st6" d="M476.1,206.5c-0.86-2.16-0.54-4.48-0.95-6.73c-0.15-0.82-0.47-2.22-1.49-2.35
					c-0.67-0.09-1.37,0.38-1.86,0.76c-0.84,0.66-1.42,1.79-2.48,2.15c-0.75,0.25-1.47-0.01-2.01-0.56c-0.22-0.22-0.4-0.47-0.57-0.73
					v7.69h9.48C476.18,206.65,476.13,206.58,476.1,206.5z"/>
				<path class="st6" d="M483.88,196.18c-1.39-2.07-1.85-4.67-2.11-7.1c-0.24-2.25-0.02-5.27-1.67-7.06c-2.32-2.52-5,0.38-5.99,2.58
					c-0.78,1.74-1.99,4.51-4.41,3.98c-1.38-0.3-2.35-1.53-2.98-2.89v10.94c0.14,0.43,0.3,0.87,0.5,1.27
					c0.26,0.53,0.72,1.45,1.4,1.53c0.83,0.09,1.49-1.11,1.98-1.59c0.84-0.8,1.98-1.61,3.2-1.46c1.52,0.19,2.27,1.73,2.63,3.05
					c0.59,2.15,0.32,4.46,1.19,6.55c0.12,0.28,0.26,0.51,0.4,0.76h12.21v-6.76C487.71,199.59,485.33,198.35,483.88,196.18z"/>
			</g>
		</g>
	</g>
	<g>
		<g>
			<path class="st7" d="M208.82,301.65c0,0-0.54,9.15,3.78,25.63l17.12-1.31c0,0-5.05-10.72-5.59-26.42L208.82,301.65z"/>
			<path class="st8" d="M219.49,315.95c2.23-0.04,4.46-0.22,6.67-0.58c0.04-0.01,0.08-0.01,0.11-0.02
				c-1.02-4.27-1.92-9.64-2.13-15.78l-15.32,2.09c0,0-0.27,4.79,1.2,13.65C213.16,315.69,216.29,316,219.49,315.95z"/>
			<path class="st9" d="M242.18,308.55l-29.79,1.36c-12.97,0.59-24.27-8.67-24.27-20.73v-27.32c0-12.06,11.3-20.04,24.27-17.99
				l29.79,4.73c9.93,1.57,17.49,10.54,17.49,20.12v21.69C259.67,299.99,252.1,308.1,242.18,308.55z"/>
			<path class="st10" d="M231.46,308.03c-4.23-1.21-8.33-2.82-12.3-4.69c-6.92-3.26-13.32-7.35-18.73-12.81
				c-4.87-4.92-8.83-10.73-11.6-17.08c-0.25-0.57-0.48-1.14-0.7-1.72v17.46c0,12.06,11.3,21.32,24.27,20.73l22.06-1.01
				C233.46,308.61,232.46,308.31,231.46,308.03z"/>
		</g>
		<g>
			<g>
				<rect x="247.28" y="351.1" class="st7" width="9.74" height="33.8"/>
				<rect x="247.28" y="351.1" class="st8" width="9.74" height="6.72"/>
			</g>
			<path class="st7" d="M274.24,352.86h-42.43c-0.97,0-1.76-0.79-1.76-1.76v-3.15c0-0.97,0.79-1.76,1.76-1.76h42.43
				c0.97,0,1.76,0.79,1.76,1.76v3.15C276,352.07,275.22,352.86,274.24,352.86z"/>
			<g>
				<path class="st9" d="M291.09,349.47h-76.11c-5.05,0-9.14-4.09-9.14-9.14v-7.48c0-5.05,4.09-9.14,9.14-9.14h76.11
					c5.05,0,9.14,4.09,9.14,9.14v7.48C300.23,345.37,296.14,349.47,291.09,349.47z"/>
				<path class="st10" d="M286.47,346.41c-8.29-0.06-16.59-0.85-24.74-2.4c-7.76-1.48-15.31-3.74-22.63-6.72
					c-7.02-2.86-13.77-6.38-19.97-10.75c-1.17-0.82-2.3-1.69-3.49-2.48c-0.18-0.12-0.36-0.24-0.53-0.36h-0.13
					c-5.05,0-9.14,4.09-9.14,9.14v7.48c0,5.05,4.09,9.14,9.14,9.14h76.11c2.89,0,5.47-1.35,7.14-3.44
					C294.31,346.25,290.4,346.44,286.47,346.41z"/>
			</g>
			<g>
				<rect x="246.35" y="383.29" class="st9" width="11.6" height="52.13"/>
				<path class="st10" d="M253.56,417.74c-1.85-3.98-3.29-8.15-4.41-12.39c-1.16-4.4-2.01-8.9-2.8-13.38c0-0.02-0.01-0.04-0.01-0.07
					v43.51h11.6v-10.06C256.23,422.98,254.8,420.39,253.56,417.74z"/>
			</g>
			<g>
				<path class="st9" d="M252.14,425.69l-47.32,5.12c-2.65,0.29-4.67,2.53-4.67,5.2v1.27h51.83h0.3h51.83v-1.27
					c0-2.67-2.01-4.91-4.67-5.2L252.14,425.69z"/>
				<path class="st10" d="M301.58,431.54c-7.29,0.44-14.59,0.67-21.89,0.76c-9.2,0.12-18.39,0.02-27.59-0.09
					c-9.21-0.11-18.42-0.15-27.62-0.23c-4.8-0.04-9.6-0.15-14.4-0.42c-1.98-0.11-3.92-0.28-5.87-0.63
					c-2.34,0.54-4.06,2.62-4.06,5.07v1.27h103.97v-1.27C304.13,434.12,303.11,432.46,301.58,431.54z"/>
			</g>
			<g>
				<g>
					<circle cx="205.38" cy="443.02" r="7.32"/>
					<path class="st11" d="M208.89,443.02c0,1.94-1.57,3.51-3.51,3.51c-1.94,0-3.51-1.57-3.51-3.51c0-1.94,1.57-3.51,3.51-3.51
						C207.32,439.51,208.89,441.08,208.89,443.02z"/>
				</g>
				<g>
					<circle cx="298.91" cy="443.02" r="7.32"/>
					<path class="st11" d="M302.42,443.02c0,1.94-1.57,3.51-3.51,3.51c-1.94,0-3.51-1.57-3.51-3.51c0-1.94,1.57-3.51,3.51-3.51
						C300.85,439.51,302.42,441.08,302.42,443.02z"/>
				</g>
				<g>
					<circle cx="253.62" cy="443.02" r="7.32"/>
					<path class="st11" d="M257.13,443.02c0,1.94-1.57,3.51-3.51,3.51c-1.94,0-3.51-1.57-3.51-3.51c0-1.94,1.57-3.51,3.51-3.51
						C255.56,439.51,257.13,441.08,257.13,443.02z"/>
				</g>
			</g>
		</g>
		<g>
			<g>
				<g>
					<g>
						<path class="st12" d="M271.54,250.41c0,0,16.29,18.42,18.68,19.19c2.4,0.77,26.51,1.35,26.51,1.35l2.02,9.51
							c0,0-30.16,5.29-33.66,3.2c-3.51-2.1-24.8-22.61-24.8-22.61L271.54,250.41z"/>
					</g>
					<g class="st13">
						<path class="st12" d="M271.54,250.41c0,0,16.29,18.42,18.68,19.19c2.4,0.77,26.51,1.35,26.51,1.35l2.02,9.51
							c0,0-30.16,5.29-33.66,3.2c-3.51-2.1-24.8-22.61-24.8-22.61L271.54,250.41z"/>
					</g>
					<g class="st13">
						<path class="st12" d="M275.9,267.69c-1.57-2.66-2.69-5.54-3.15-8.6c-0.32-2.11-0.44-4.72,0.48-6.77
							c-1.05-1.17-1.7-1.9-1.7-1.9l-11.25,10.64c0,0,21.29,20.51,24.8,22.61c1,0.6,3.11,0.7,4.18,0.43
							c-0.74,0.19-3.2-3.84-3.63-4.39C282.43,275.68,278.53,272.14,275.9,267.69z"/>
					</g>
				</g>
				<g>
					<path class="st6" d="M260.84,236.51c-5.95-2.14-13.56,3.25-6.27,16.76c1.86,3.44,3.8,6.64,5.67,9.51
						c2.17-0.51,4.08-1.76,5.83-3.12c3.1-2.4,6.27-4.78,9.03-7.63c0.19-0.19,0.37-0.4,0.55-0.6
						C270.74,245.07,263.78,237.57,260.84,236.51z"/>
					<path class="st14" d="M269.68,256.14c-2.06-4.33-4.28-8.58-6.55-12.8c-1.1-2.04-2.18-4.11-3.43-6.05
						c-0.26-0.4-0.52-0.8-0.79-1.2c-5.47-0.48-10.86,5.1-4.34,17.18c1.86,3.44,3.8,6.64,5.67,9.51c2.17-0.51,4.08-1.76,5.83-3.12
						c1.28-0.99,2.57-1.99,3.85-3.01C269.84,256.48,269.76,256.31,269.68,256.14z"/>
				</g>
				<g>
					<path class="st2" d="M259.42,263.07c-0.09,0.82,0.23,1.8,0.66,1.66c0.31-0.1,0.52-0.71,0.81-0.95
						c0.39-0.33,0.82,0.06,1.21,0.34c0.56,0.4,1.32,0.48,1.68-0.49c0.17-0.46,0.22-1.07,0.41-1.51c0.29-0.65,0.8-0.69,1.23-0.57
						c0.43,0.12,0.89,0.33,1.29-0.03c0.49-0.43,0.72-1.53,1.16-2.15c0.51-0.72,1.19-0.64,1.8-0.62c0.51,0.02,1.04-0.01,1.53-0.3
						c0.5-0.28,0.98-0.84,1.27-1.67c0.07-0.21,0.14-0.45,0.25-0.6c0.15-0.2,0.34-0.2,0.52-0.21c0.47-0.02,0.95-0.21,1.4-0.54
						c0.22-0.16,0.48-0.52,0.42-0.95c-0.03-0.19-0.11-0.32-0.16-0.49c-0.16-0.59,0.16-1.28,0.47-1.63c0.31-0.34,0.7-0.68,0.77-1.35
						c0.1-0.85-0.44-1.51-0.89-1.33c-0.45,0.18-0.79,0.85-1.14,1.45c-1.45,2.53-3.27,4.12-5.08,5.52c-0.87,0.67-1.74,1.3-2.63,1.85
						c-1.31,0.82-2.65,1.47-4,1.95C261.38,260.84,259.7,260.48,259.42,263.07z"/>
				</g>
				<g>
					<path class="st15" d="M271.05,257.68c-0.34-0.53-0.71-1.05-0.97-1.63c-0.02-0.04-0.04-0.09-0.06-0.15
						c-0.33,0.27-0.65,0.53-0.98,0.78c-0.87,0.67-1.74,1.3-2.63,1.85c-1.31,0.82-2.65,1.47-4,1.95c-1.03,0.36-2.7,0-2.98,2.59
						c-0.09,0.82,0.23,1.8,0.66,1.66c0.31-0.1,0.52-0.71,0.81-0.95c0.39-0.33,0.82,0.06,1.21,0.34c0.56,0.4,1.32,0.48,1.68-0.49
						c0.17-0.46,0.22-1.07,0.41-1.51c0.29-0.65,0.8-0.69,1.23-0.57c0.43,0.12,0.89,0.33,1.29-0.03c0.49-0.43,0.72-1.53,1.16-2.15
						c0.51-0.72,1.19-0.64,1.8-0.62c0.51,0.02,1.04-0.01,1.53-0.3c0.09-0.05,0.19-0.13,0.28-0.2
						C271.33,258.08,271.18,257.89,271.05,257.68z"/>
				</g>
			</g>
			<g>
				<g>
					<g>
						<g>
							<g>
								<path class="st6" d="M266.15,259.08c0.48-9.9-1.77-20.45-4.88-22.33c-3.09-1.87-7.71-3.64-15.86-3.78
									c-8.16-0.13-16.76,3.38-19.63,6.55c-2.89,3.19-7.25,7.66-8.93,29.49c-0.81,10.57-2.16,22.98,0.64,26.18
									c5.17,5.91,29.26,8.89,42.1,1.38C257.41,275.72,265.74,267.66,266.15,259.08z"/>
							</g>
						</g>
					</g>
					<g class="st16">
						<g>
							<path class="st17" d="M233.4,300.39c-1.69-2.32-3.16-4.82-4.48-7.36c-4.59-8.87-7.16-18.7-8.43-28.56
								c-0.62-4.8-0.87-9.71-0.52-14.55c-1.29,4.22-2.42,10.23-3.1,19.11c-0.81,10.57-2.16,22.98,0.64,26.18
								c2.38,2.71,8.75,4.8,16.18,5.55C233.59,300.63,233.49,300.51,233.4,300.39z"/>
						</g>
					</g>
				</g>
				<path class="st9" d="M244.24,291.93c0,0,2.57-1.74,4.15-4.79c1.23-2.38,1.49-6.14,1.84-6.63c0.8-1.12,10.82-2.43,11.81-1.12
					c1.04,1.36,0.88,8.3,1.28,9.74c0.4,1.44-0.56,6.07-1.12,6.63s-8.28,3.25-17.96,2.87C242.17,298.56,243.76,292.65,244.24,291.93z
					"/>
				<path class="st10" d="M263.32,289.14c-0.4-1.44-0.24-8.38-1.28-9.74c-0.09-0.12-0.28-0.21-0.52-0.29c0,0.92-0.11,1.87-0.23,2.71
					c-0.23,1.66-0.64,3.29-1.16,4.87c-1.21,3.68-2.83,7.41-5.28,10.45c-0.25,0.31-0.52,0.61-0.8,0.9c4.67-0.75,7.8-1.92,8.15-2.27
					C262.76,295.21,263.72,290.58,263.32,289.14z"/>
			</g>
			<g>
				<defs>
					<path id="XMLID_4_" d="M309.27,390.13c3.93,4.66,14.84,8.69,9.07,10.36c-3.24,0.94-9.27-1.3-15.9-3.48
						c-5.19-1.71-11.4-3.08-12.51-4.84c-2.54-4,1.56-14.38,1.56-14.38l14.54,1.72C306.03,379.52,305.34,385.47,309.27,390.13z"/>
				</defs>
				<use xlink:href="#XMLID_4_"  style="overflow:visible;fill:#AB6D50;"/>
				<clipPath id="XMLID_7_">
					<use xlink:href="#XMLID_4_"  style="overflow:visible;"/>
				</clipPath>
				<path class="st18" d="M310.33,399.08c-3.76-1.25-7.19-3.07-10.43-5.06c-1.71-1.05-3.55-2.52-3.13-4.3
					c0.32-1.37,1.89-2.31,3.42-2.91c2.55-0.99,5.37-1.46,8.13-1.34c1.15,0.05,2.3,0.19,3.46,0.09c1.15-0.1,2.35-0.51,3.02-1.32
					c0.71-0.85,0.67-2.01,0.19-2.93c-0.48-0.92-1.35-1.65-2.25-2.31c-3.97-2.92-9.2-4.91-14.59-4.51
					c-5.39,0.4-10.75,3.62-11.95,8.04c-0.65,2.38-0.09,4.84,0.9,7.08c2.37,5.31,7.3,9.73,13.48,12.06c4.25,1.6,9.07,2.21,13.79,1.8
					c2.21-0.19,4.87-0.51,6.9-1.38c3.06-1.32-1.27-1.36-2.39-1.4C315.92,400.57,313.03,399.97,310.33,399.08z"/>
				<path class="st18" d="M318.5,398.98c-0.42-0.37-0.92-0.62-1.43-0.84c-0.59-0.25-1.19-0.47-1.81-0.61
					c-0.34-0.08-0.68-0.14-1.02-0.19c-0.2-0.03-0.47-0.11-0.62,0.06c-0.04,0.04-0.05,0.11-0.02,0.15c0.04,0.06,0.08,0.09,0.16,0.08
					c0.03,0,0.06-0.02,0.08-0.04c0.09,0.01,0.23,0.06,0.27,0.06c0.14,0.03,0.29,0.06,0.43,0.09c0.25,0.06,0.5,0.12,0.74,0.19
					c0.54,0.16,1.07,0.35,1.59,0.58c0.43,0.19,0.86,0.4,1.22,0.7c0.16,0.13,0.3,0.27,0.42,0.44c0.12,0.18,0.18,0.39,0.31,0.57
					c0.08,0.11,0.27,0.1,0.3-0.05C319.21,399.72,318.83,399.26,318.5,398.98z"/>
				<path class="st18" d="M320.43,397.84c-0.44-0.49-1.04-0.81-1.64-1.04c-0.66-0.25-1.35-0.43-2.04-0.55
					c-0.63-0.12-1.36-0.26-2-0.16c-0.16,0.03-0.12,0.25,0.01,0.28c0,0,0,0.01,0,0.01c0.59,0.16,1.23,0.17,1.83,0.29
					c0.57,0.11,1.13,0.26,1.68,0.45c0.57,0.2,1.15,0.44,1.61,0.85c0.42,0.38,0.58,0.84,0.87,1.31c0.06,0.1,0.22,0.08,0.25-0.04
					C321.1,398.71,320.77,398.21,320.43,397.84z"/>
			</g>
			<g>
				<defs>
					<path id="XMLID_305_" d="M344.92,371.57c5.69,2.19,17.19,0.48,12.94,4.72c-2.39,2.38-8.75,3.32-15.61,4.6
						c-5.37,1-11.47,2.79-13.3,1.78c-4.15-2.29-5.56-13.35-5.56-13.35l13.57-5.5C336.97,363.83,339.23,369.38,344.92,371.57z"/>
				</defs>
				<use xlink:href="#XMLID_305_"  style="overflow:visible;fill:#AB6D50;"/>
				<clipPath id="XMLID_8_">
					<use xlink:href="#XMLID_305_"  style="overflow:visible;"/>
				</clipPath>
				<path class="st19" d="M350.16,378.91c-3.9,0.72-7.78,0.77-11.58,0.58c-2-0.1-4.32-0.5-4.82-2.26c-0.38-1.36,0.54-2.93,1.59-4.19
					c1.76-2.1,4-3.86,6.48-5.09c1.03-0.51,2.11-0.94,3.07-1.58c0.96-0.65,1.82-1.58,2.01-2.61c0.21-1.09-0.38-2.08-1.24-2.66
					c-0.87-0.58-1.98-0.8-3.08-0.94c-4.89-0.64-10.43,0.12-14.96,3.06c-4.53,2.94-7.68,8.34-6.61,12.8c0.58,2.4,2.25,4.29,4.2,5.77
					c4.63,3.52,11.08,5.01,17.62,4.08c4.5-0.64,9.01-2.43,12.95-5.06c1.85-1.24,4.02-2.79,5.38-4.53c2.05-2.63-1.76-0.58-2.77-0.07
					C355.77,377.52,352.96,378.39,350.16,378.91z"/>
				<path class="st19" d="M357.27,374.89c-0.54-0.12-1.1-0.1-1.65-0.05c-0.64,0.06-1.27,0.16-1.88,0.34
					c-0.33,0.09-0.66,0.2-0.99,0.32c-0.19,0.07-0.47,0.13-0.52,0.35c-0.01,0.05,0.01,0.12,0.06,0.14c0.07,0.03,0.11,0.04,0.18,0
					c0.02-0.02,0.04-0.04,0.05-0.07c0.08-0.03,0.23-0.06,0.27-0.07c0.14-0.05,0.28-0.09,0.42-0.13c0.25-0.07,0.49-0.13,0.74-0.19
					c0.55-0.12,1.11-0.21,1.67-0.26c0.47-0.04,0.95-0.06,1.41,0.02c0.2,0.04,0.4,0.09,0.58,0.18c0.2,0.1,0.35,0.26,0.55,0.35
					c0.12,0.06,0.29-0.04,0.24-0.19C358.25,375.19,357.69,374.98,357.27,374.89z"/>
				<path class="st19" d="M358.41,372.96c-0.62-0.22-1.3-0.21-1.94-0.12c-0.7,0.1-1.38,0.28-2.05,0.49
					c-0.61,0.2-1.32,0.42-1.83,0.82c-0.13,0.1,0.02,0.27,0.14,0.24c0,0,0,0.01,0,0.01c0.59-0.14,1.16-0.44,1.74-0.62
					c0.55-0.17,1.12-0.31,1.69-0.41c0.59-0.1,1.22-0.17,1.82-0.03c0.55,0.13,0.91,0.46,1.39,0.73c0.1,0.06,0.24-0.04,0.2-0.15
					C359.42,373.4,358.89,373.12,358.41,372.96z"/>
			</g>
			<g>
				<defs>
					<path id="XMLID_10_" d="M229.66,302.31c0,0-4.41,25.02,8.31,25.42s46.98,1.99,46.98,1.99l2.84,52.13l21.71,4.24
						c0,0-2.84-70.67-8.1-75.83c-5.26-5.16-33.33-7.93-39.78-7.73c-0.65,0.02-0.18-7.35-1.18-7.34
						C251.6,295.25,229.66,302.31,229.66,302.31z"/>
				</defs>
				<use xlink:href="#XMLID_10_"  style="overflow:visible;fill:#D9A7FF;"/>
				<clipPath id="XMLID_11_">
					<use xlink:href="#XMLID_10_"  style="overflow:visible;"/>
				</clipPath>
				<path class="st20" d="M229.66,302.31c0,0-4.41,25.02,8.31,25.42s46.98,1.99,46.98,1.99l2.84,52.13l21.71,4.24
					c0,0-2.84-70.67-8.1-75.83c-5.26-5.16-33.33-7.93-39.78-7.73c-0.65,0.02-0.18-7.35-1.18-7.34
					C251.6,295.25,229.66,302.31,229.66,302.31z"/>
				<path class="st20" d="M297,359.81c2.93,3.09,6.33,5.73,10.04,7.82c1.28,0.72,2.61,1.38,4.05,1.7c0.19,0.04,0.39,0.07,0.56-0.02
					c0.13-0.07,0.21-0.21,0.27-0.35c0.9-1.9,0.5-4.21-0.45-6.09c-0.95-1.88-2.39-3.46-3.68-5.13c-1.75-2.27-3.24-4.73-5.01-6.98
					c-2.23-2.83-4.9-5.3-7.16-8.11c-1.47-1.82-2.76-3.79-4.32-5.53c-1.56-1.74-3.44-3.28-5.68-3.97c-0.63-0.19-1.32-0.31-1.93-0.09
					c-1.79,0.66-1.42,2.65-0.71,3.87c1.08,1.87,1.92,3.89,2.88,5.83c1.92,3.88,4,7.7,6.48,11.26
					C293.74,356.06,295.29,358.01,297,359.81z"/>
			</g>
			<g>
				<path class="st21" d="M261.58,260.33c0,0,0.13-12-2.92-19.14c-3.06-7.14-6.06-6.79-6.42-7.55c-0.19-0.4,3.05-0.05,5.61,1.09
					c2.72,1.21,5.06,4.37,6,7.61c2.03,6.93,2.03,14.78,2.07,16.85C265.96,261.26,261.78,262.3,261.58,260.33z"/>
				<path class="st10" d="M263.86,242.33c-0.72-2.46-2.24-4.87-4.12-6.42c0.83,1.49,1.52,3.06,2.08,4.62
					c1.07,2.93,1.55,6.04,1.76,9.15c0.19,2.79,0.04,5.58,0.1,8.37c0.02,1.08,0.05,2.17,0.04,3.25c1.11-0.24,2.22-1.04,2.2-2.11
					C265.88,257.12,265.89,249.27,263.86,242.33z"/>
			</g>
			<g>
				<path class="st21" d="M244.95,260.7c0,0-0.68-11.24-4.94-17.93c-4.26-6.69-7.94-6.36-8.43-7.08c-0.49-0.71,3.97-2.42,5.43-2.33
					c1.45,0.1,6.31,3.53,9.23,9.85c2.99,6.5,3.79,14.47,3.99,16.41C250.41,261.56,245.34,262.54,244.95,260.7z"/>
				<path class="st10" d="M246.23,243.21c-0.97-2.11-2.16-3.89-3.36-5.33c0.55,1.23,1.09,2.46,1.62,3.71
					c1.03,2.45,1.93,4.97,2.46,7.58c0.58,2.83,0.89,5.73,1.17,8.61c0.12,1.21,0.21,2.43,0.29,3.65c1.04-0.34,1.89-0.98,1.81-1.79
					C250.02,257.68,249.22,249.71,246.23,243.21z"/>
			</g>
			<path class="st21" d="M216.8,294.2c0,0-5.29,31.27,10.8,34.05c13.01,2.25,54.69,4.87,54.69,4.87l40.97,45.19l21.52-11.69
				c0,0-40.47-43.54-45.93-49.02c-5.46-5.48-38.42-11.99-45.1-11.78c6.29-2.08,6.7-3.34,7.59-7.97c2.23-11.63,5.72-36.35,4.26-38.58
				c-1.45-2.23-21.53,0.2-25.01,0.83c-2.51,0.46-7.32,31.13-11.8,33.2C222.3,296.3,216.8,294.2,216.8,294.2z"/>
			<g>
				<defs>
					<path id="XMLID_9_" d="M216.8,294.2c0,0-5.29,31.27,10.8,34.05c13.01,2.25,54.69,4.87,54.69,4.87l40.97,45.19l21.52-11.69
						c0,0-40.47-43.54-45.93-49.02c-5.46-5.48-38.42-11.99-45.1-11.78c6.29-2.08,6.7-3.34,7.59-7.97
						c2.23-11.63,5.72-36.35,4.26-38.58c-1.45-2.23-21.53,0.2-25.01,0.83c-2.51,0.46-7.32,31.13-11.8,33.2
						C222.3,296.3,216.8,294.2,216.8,294.2z"/>
				</defs>
				<use xlink:href="#XMLID_9_"  style="overflow:visible;fill:#D9A7FF;"/>
				<clipPath id="XMLID_12_">
					<use xlink:href="#XMLID_9_"  style="overflow:visible;"/>
				</clipPath>
				<path class="st22" d="M328.33,380.09c0.04-0.04,0.08-0.09,0.12-0.13c-2.25-7.67-7.27-10.27-12.63-16.44
					c-7.12-8.19-18.36-21.28-23.74-26.22c-4.24-3.9-8.46-6.19-14.06-7.55c-5.82-1.41-11.84-1.65-17.71-2.85
					c-6.19-1.26-12.39-2.52-18.68-3.17c-3.35-0.35-6.75-0.59-9.94-1.7c-4.28-1.49-7.92-4.51-10.71-8.09
					c-1.11-1.43-2.1-2.96-2.99-4.54c-0.55-0.98-1.18-3.49-2.39-3.75c-3.4-0.72-1.79,5.85-1.57,7.2c1.05,6.32,2.56,13.12,7.33,17.75
					c4.04,3.92,9.75,5.56,15.28,6.64c12.06,2.36,24.51,2.73,36.7,1.15c0.01,0.01,0.01,0.01,0.02,0.02c0.88,0.79,1.8,1.53,2.74,2.24
					c1.77,1.34,3.62,2.58,5.37,3.94c13.15,10.14,21.15,26.22,35.33,34.85c2.27,1.38,4.76,2.55,7.32,3.25
					C325.47,381.69,326.87,380.8,328.33,380.09z"/>
				<g class="st23">
					<g>
						<g>
							<path class="st9" d="M223.45,294.08c-0.01,0-0.01,0-0.02,0c-0.21-0.01-0.37-0.19-0.36-0.39c0.05-0.93,0.09-1.5,0.09-1.5
								c0.01-0.21,0.16-0.38,0.4-0.35c0.21,0.01,0.36,0.19,0.35,0.4c0,0-0.04,0.56-0.08,1.49
								C223.82,293.92,223.65,294.08,223.45,294.08z"/>
						</g>
						<g>
							<path class="st9" d="M330.98,373.59c-0.11,0-0.21-0.05-0.29-0.13l-1.96-2.36c-0.13-0.16-0.11-0.4,0.05-0.53
								c0.16-0.13,0.4-0.11,0.53,0.05l1.96,2.35c0.13,0.16,0.11,0.4-0.05,0.53C331.15,373.56,331.07,373.59,330.98,373.59z
								 M327.07,368.88c-0.11,0-0.21-0.05-0.29-0.14l-1.95-2.36c-0.13-0.16-0.11-0.4,0.05-0.53c0.16-0.13,0.39-0.11,0.53,0.05
								l1.95,2.36c0.13,0.16,0.11,0.4-0.05,0.53C327.24,368.85,327.16,368.88,327.07,368.88z M323.16,364.17
								c-0.11,0-0.21-0.05-0.29-0.14l-1.95-2.36c-0.13-0.16-0.11-0.4,0.05-0.53c0.16-0.13,0.4-0.11,0.53,0.05l1.95,2.36
								c0.13,0.16,0.11,0.4-0.05,0.53C323.33,364.14,323.25,364.17,323.16,364.17z M319.26,359.45c-0.11,0-0.21-0.05-0.29-0.14
								l-1.95-2.36c-0.13-0.16-0.11-0.4,0.05-0.53c0.16-0.13,0.4-0.11,0.53,0.05l1.95,2.36c0.13,0.16,0.11,0.4-0.05,0.53
								C319.43,359.42,319.34,359.45,319.26,359.45z M315.36,354.73c-0.11,0-0.21-0.05-0.29-0.14l-1.95-2.36
								c-0.13-0.16-0.11-0.4,0.05-0.53c0.16-0.13,0.4-0.11,0.53,0.05l1.95,2.36c0.13,0.16,0.11,0.4-0.05,0.53
								C315.53,354.7,315.44,354.73,315.36,354.73z M311.46,350.01c-0.11,0-0.21-0.05-0.29-0.14l-1.95-2.36
								c-0.13-0.16-0.11-0.4,0.05-0.53c0.16-0.13,0.4-0.11,0.53,0.05l1.95,2.36c0.13,0.16,0.11,0.4-0.05,0.53
								C311.63,349.98,311.54,350.01,311.46,350.01z M307.57,345.28c-0.11,0-0.22-0.05-0.29-0.14l-1.94-2.37
								c-0.13-0.16-0.11-0.4,0.05-0.53c0.16-0.13,0.4-0.11,0.53,0.05l1.94,2.37c0.13,0.16,0.11,0.4-0.05,0.53
								C307.74,345.26,307.65,345.28,307.57,345.28z M303.68,340.55c-0.11,0-0.22-0.05-0.29-0.14l-1.94-2.37
								c-0.13-0.16-0.11-0.4,0.05-0.53c0.16-0.13,0.4-0.11,0.53,0.05l1.94,2.37c0.13,0.16,0.11,0.4-0.05,0.53
								C303.85,340.52,303.77,340.55,303.68,340.55z M299.82,335.8c-0.11,0-0.22-0.05-0.29-0.14c-0.73-0.9-1.38-1.71-1.92-2.39
								c-0.13-0.16-0.1-0.4,0.06-0.53c0.16-0.13,0.4-0.1,0.53,0.06c0.54,0.68,1.19,1.48,1.92,2.38c0.13,0.16,0.11,0.4-0.05,0.53
								C299.98,335.77,299.9,335.8,299.82,335.8z M295.92,331.08c-0.1,0-0.2-0.04-0.27-0.12c-0.67-0.7-1.42-1.37-2.23-2.01
								c-0.16-0.13-0.19-0.36-0.06-0.53c0.13-0.16,0.36-0.19,0.53-0.06c0.83,0.65,1.61,1.35,2.31,2.08
								c0.14,0.15,0.14,0.39-0.01,0.53C296.11,331.04,296.02,331.08,295.92,331.08z M291.14,327.3c-0.07,0-0.13-0.02-0.2-0.05
								c-0.83-0.51-1.72-0.99-2.65-1.45c-0.19-0.09-0.26-0.32-0.17-0.5c0.09-0.19,0.32-0.27,0.5-0.17c0.95,0.46,1.86,0.96,2.71,1.48
								c0.18,0.11,0.23,0.34,0.13,0.52C291.39,327.24,291.27,327.3,291.14,327.3z M285.66,324.61c-0.05,0-0.09-0.01-0.14-0.03
								c-0.91-0.36-1.87-0.7-2.86-1.02c-0.2-0.06-0.31-0.27-0.24-0.47c0.06-0.2,0.28-0.31,0.47-0.24c1,0.32,1.98,0.67,2.9,1.04
								c0.19,0.08,0.29,0.29,0.21,0.49C285.95,324.52,285.81,324.61,285.66,324.61z M279.85,322.71c-0.03,0-0.06,0-0.1-0.01
								c-1.07-0.29-2.07-0.53-2.96-0.73c-0.2-0.05-0.33-0.25-0.28-0.45c0.05-0.2,0.24-0.33,0.45-0.28c0.89,0.21,1.9,0.45,2.98,0.74
								c0.2,0.05,0.32,0.26,0.27,0.46C280.17,322.6,280.02,322.71,279.85,322.71z M273.9,321.29c-0.03,0-0.06,0-0.08-0.01
								c-0.49-0.11-1.45-0.29-3-0.56c-0.2-0.03-0.34-0.23-0.31-0.43c0.04-0.2,0.22-0.34,0.43-0.31c1.57,0.27,2.54,0.45,3.04,0.57
								c0.2,0.05,0.33,0.25,0.28,0.45C274.22,321.17,274.07,321.29,273.9,321.29z M267.85,320.22c-0.02,0-0.04,0-0.06,0l-3.02-0.5
								c-0.2-0.03-0.34-0.23-0.31-0.43c0.03-0.2,0.22-0.34,0.43-0.31l3.02,0.5c0.2,0.03,0.34,0.23,0.31,0.43
								C268.19,320.09,268.03,320.22,267.85,320.22z M261.8,319.21c-0.02,0-0.04,0-0.06,0l-3.02-0.51c-0.2-0.04-0.34-0.23-0.31-0.43
								c0.03-0.2,0.22-0.34,0.43-0.31l3.02,0.51c0.21,0.03,0.34,0.23,0.31,0.43C262.14,319.08,261.98,319.21,261.8,319.21z
								 M255.76,318.18c-0.02,0-0.04,0-0.06-0.01c-1-0.17-2-0.35-3.02-0.53c-0.2-0.04-0.34-0.23-0.3-0.43
								c0.04-0.2,0.23-0.34,0.43-0.3c1.02,0.18,2.02,0.36,3.02,0.53c0.2,0.03,0.34,0.23,0.31,0.43
								C256.1,318.06,255.94,318.18,255.76,318.18z M249.73,317.11c-0.02,0-0.04,0-0.07-0.01c-1.01-0.18-2.01-0.37-3.01-0.56
								c-0.2-0.04-0.34-0.23-0.3-0.44c0.04-0.2,0.23-0.34,0.44-0.3c1,0.19,2.01,0.38,3.01,0.56c0.2,0.04,0.34,0.23,0.3,0.44
								C250.06,316.99,249.9,317.11,249.73,317.11z M243.71,315.97c-0.02,0-0.05,0-0.07-0.01c-1.02-0.2-2.02-0.4-3.01-0.61
								c-0.2-0.04-0.33-0.24-0.29-0.44c0.04-0.2,0.24-0.33,0.44-0.29c0.98,0.21,1.98,0.41,3,0.61c0.2,0.04,0.34,0.24,0.3,0.44
								C244.04,315.85,243.88,315.97,243.71,315.97z M237.71,314.72c-0.03,0-0.05,0-0.08-0.01c-1.03-0.23-2.03-0.46-2.99-0.69
								c-0.2-0.05-0.33-0.25-0.28-0.45c0.05-0.2,0.25-0.33,0.45-0.28c0.95,0.23,1.95,0.46,2.98,0.69c0.2,0.04,0.33,0.25,0.29,0.45
								C238.03,314.6,237.88,314.72,237.71,314.72z M231.75,313.27c-0.03,0-0.06,0-0.1-0.01c-1.08-0.29-2.08-0.58-2.96-0.87
								c-0.2-0.06-0.31-0.28-0.24-0.47c0.06-0.2,0.28-0.3,0.47-0.24c0.87,0.28,1.85,0.57,2.92,0.86c0.2,0.05,0.32,0.26,0.26,0.46
								C232.07,313.16,231.92,313.27,231.75,313.27z M225.94,311.33c-0.05,0-0.11-0.01-0.16-0.04c-1.25-0.58-1.92-1.12-2.11-1.68
								c-0.06-0.18-0.11-0.38-0.16-0.58c-0.05-0.2,0.08-0.4,0.28-0.45c0.21-0.05,0.4,0.08,0.45,0.28c0.05,0.19,0.09,0.37,0.15,0.53
								c0.05,0.15,0.32,0.58,1.71,1.23c0.19,0.09,0.27,0.31,0.18,0.5C226.22,311.25,226.09,311.33,225.94,311.33z M223.45,306.3
								c-0.19,0-0.36-0.15-0.37-0.34c-0.07-0.91-0.13-1.94-0.16-3.07c0-0.21,0.16-0.38,0.37-0.38c0,0,0.01,0,0.01,0
								c0.2,0,0.37,0.16,0.38,0.37c0.03,1.12,0.08,2.14,0.15,3.03c0.02,0.21-0.14,0.39-0.34,0.41
								C223.47,306.3,223.46,306.3,223.45,306.3z M223.27,300.19C223.27,300.19,223.27,300.19,223.27,300.19
								c-0.21,0-0.38-0.17-0.38-0.38c0.01-1.07,0.03-2.11,0.06-3.06c0.01-0.21,0.16-0.36,0.39-0.36c0.21,0.01,0.37,0.18,0.36,0.39
								c-0.03,0.95-0.05,1.98-0.06,3.05C223.64,300.02,223.47,300.19,223.27,300.19z"/>
						</g>
						<g>
							<path class="st9" d="M333.76,376.93c-0.11,0-0.21-0.05-0.29-0.14l-0.96-1.15c-0.13-0.16-0.11-0.4,0.05-0.53
								c0.16-0.13,0.4-0.11,0.53,0.05l0.96,1.15c0.13,0.16,0.11,0.4-0.05,0.53C333.93,376.9,333.84,376.93,333.76,376.93z"/>
						</g>
					</g>
				</g>
				<path class="st22" d="M260.44,293.67c-1.13,1.78-2.74,3.25-4.62,4.2c3.5-3.88,5.19-9.06,6.32-14.16
					c1.13-5.1,1.82-10.35,3.72-15.21c1.16,1.94,0.81,4.4,0.43,6.64c-0.87,5.09-1.67,10.19-2.41,15.31
					c-0.37,2.53-0.72,5.07-1.05,7.61c-0.22,1.69-0.13,3.78-1.44,5.05c-1.1,1.06-3.45,2.93-5.01,2.63c0.82-2.02,2.03-3.88,2.81-5.93
					c0.38-1,0.7-2.02,0.92-3.07C260.26,295.99,260.08,294.24,260.44,293.67z"/>
			</g>
			<g>
				<g>
					
						<rect x="279.57" y="253.93" transform="matrix(-0.5281 0.8492 -0.8492 -0.5281 643.8146 151.0801)" class="st7" width="0.72" height="0.98"/>
					<path class="st7" d="M285.84,259.16l0.15-0.24c0.1-0.16,0.05-0.37-0.11-0.47l-6.48-4.03c-0.16-0.1-0.37-0.05-0.47,0.11
						l-0.15,0.24c-0.1,0.16-0.05,0.37,0.11,0.47l6.48,4.03C285.53,259.37,285.74,259.32,285.84,259.16z"/>
				</g>
				<g>
					
						<rect x="286.8" y="247.91" transform="matrix(-0.5282 0.8491 -0.8491 -0.5282 659.2688 149.141)" class="st21" width="2.8" height="19.65"/>
					<path class="st24" d="M279.67,252.84c0.32,0.15,11.05,6.61,17.11,9.69l-0.99,1.59l-16.68-10.38L279.67,252.84z"/>
					<path class="st21" d="M295.8,264.12l2.82,0.48c0.05,0.01,0.1,0.01,0.15-0.01c0.02-0.01,0.04-0.01,0.05-0.02
						c0.03-0.02,0.06-0.04,0.09-0.07c0.01-0.01,0.02-0.02,0.03-0.04c0-0.01,0.01-0.01,0.01-0.02c0,0,0,0,0,0
						c0.06-0.1,0.07-0.23-0.01-0.34l-1.66-2.36L295.8,264.12z"/>
					<path class="st24" d="M295.8,264.12l2.82,0.48c0.05,0.01,0.1,0.01,0.15-0.01c0.02-0.01,0.04-0.01,0.05-0.02
						c0.06-0.03,0.1-0.07,0.13-0.13c-0.13-0.13-0.26-0.26-0.4-0.37c-0.59-0.51-1.19-1.01-1.77-1.54L295.8,264.12z"/>
					<path d="M298.68,263.72l0.26,0.37c0.16,0.23-0.03,0.55-0.32,0.5l-0.42-0.07C298.38,264.27,298.53,263.99,298.68,263.72z"/>
					
						<rect x="278.18" y="252.04" transform="matrix(-0.5281 0.8492 -0.8492 -0.5281 641.7302 148.2723)" class="st7" width="2.98" height="0.79"/>
					
						<rect x="278.57" y="252.73" transform="matrix(-0.5281 0.8492 -0.8492 -0.5281 641.6577 149.69)" class="st25" width="1.34" height="0.79"/>
					<path class="st21" d="M278.76,253.15l1.15-1.86l-0.93-0.58c-0.36-0.23-0.84-0.11-1.07,0.25l-0.34,0.54
						c-0.23,0.36-0.11,0.84,0.25,1.07L278.76,253.15z"/>
				</g>
			</g>
			<g>
				<g>
					<path class="st12" d="M296.5,260.86c-1.04-2.45-3.15-4.44-5.62-5.85c-0.76-0.43-1.56-0.82-2.45-0.99
						c-1.79-0.34-3.89,0.15-5.58,0.72c-2.16,0.73-4.16,1.84-6.18,2.83c-1.89,0.92-3.77,1.85-5.65,2.79
						c-0.43,0.21-24.88,9.28-26.35,8.55c-1.48-0.73-4.71-16.24-4.71-16.24s-11.09,1.72-14.67,8.97
						c-0.04-0.18,6.81,20.45,12.84,21.39c5.21,0.81,29.94-13.45,33.18-14.84c0.48,0.07,1.01,0.1,1.59,0.08
						c6.28-0.26,5.33-3.7,5.63-3.94l-0.16-0.19c1.21,0.29,2.43,0.56,3.67,0.78c0.5,0.09,1.16,0.1,1.38-0.31
						c0.17-0.32-0.08-0.68-0.32-0.96c-0.81-0.92-1.7-1.77-2.67-2.55c2.03,1.12,4.06,2.24,6.09,3.36c0.4,0.22,0.96,0.44,1.33,0.15
						c0.37-0.28,0.21-0.8,0-1.17c-1.01-1.82-2.54-3.4-4.42-4.56c1.37,0.87,2.73,1.75,4.1,2.62c0.94,0.6,1.88,1.2,2.88,1.72
						c0.9,0.47,2.02,0.87,2.98,0.44c0.12-0.06,0.25-0.14,0.29-0.25c0.03-0.11-0.02-0.22-0.08-0.32c-1.17-2.13-3.25-3.74-5.28-5.29
						c1.81,1.18,3.62,2.36,5.43,3.55c0.7,0.46,1.57,0.93,2.39,0.65c0.18-0.06,0.35-0.17,0.44-0.31
						C296.7,261.42,296.61,261.12,296.5,260.86z"/>
				</g>
				<g class="st13">
					<path class="st12" d="M271.32,265.67c-1.77-0.05-3.54-0.18-5.26,0.32c-1.38,0.4-2.7,0.98-3.97,1.65
						c-2.71,1.42-5.19,3.22-7.7,4.97c-2.16,1.5-4.36,2.93-6.66,4.19c-2.05,1.13-4.34,2.23-6.73,2.31c-1.84,0.06-3.76-0.78-4.49-2.56
						c-0.67-1.65-0.31-3.61,0.18-5.25c0.59-1.98,1.54-3.86,2.7-5.56c0.78-1.14,1.7-2.32,2.92-3.04c-1.23-4.59-2.37-10.03-2.37-10.03
						s-11.09,1.72-14.67,8.97c-0.04-0.18,6.81,20.45,12.84,21.39c5.21,0.81,29.94-13.45,33.18-14.84c0.48,0.07,1.01,0.1,1.59,0.08
						c4.89-0.2,5.39-2.32,5.52-3.37C276.07,265.39,273.7,265.73,271.32,265.67z"/>
				</g>
				<g>
					<g>
						<path class="st6" d="M224.29,269.07c1.03-0.04,2.07-0.15,3.1-0.28c4.68-0.6,9.41-1.95,13.66-3.88
							c2.39-1.08,4.66-2.4,6.48-4.11c-1.41-3.96-2.73-7.78-3.48-10.1c-1.03-3.23-2.28-6.55-4.7-9.39c-1.72-2.02-6.79-6.88-12.36-3.4
							c-0.29,0.18-0.58,0.38-0.86,0.59c-0.31,0.24-0.6,0.48-0.87,0.74c-4.11,3.81-4.97,10.22-4.7,15.87
							c0.05,1.11,0.18,2.21,0.38,3.32c0.57,3.25,1.49,6.93,2.64,10.64C223.81,269.08,224.05,269.08,224.29,269.07z"/>
					</g>
				</g>
				<g>
					<g>
						<path class="st14" d="M225.55,253.62c-1.03-3.7-1.39-7.58-1.16-11.41c0.04-0.73,0.08-1.47,0.14-2.21
							c-3.47,3.86-4.21,9.82-3.96,15.12c0.05,1.11,0.18,2.21,0.38,3.32c0.57,3.25,1.49,6.93,2.64,10.64c0.24,0,0.48,0.01,0.71,0
							c1.03-0.04,2.07-0.15,3.1-0.28c2.38-0.3,4.76-0.8,7.1-1.47C230.01,264,227.04,258.95,225.55,253.62z"/>
					</g>
				</g>
				<g>
					<path class="st2" d="M222.3,270.2c-0.15,0.69,0.37,1.55,1.07,1.46c0.51-0.07,0.85-0.57,1.32-0.76
						c0.64-0.25,1.34,0.11,1.98,0.37c0.92,0.38,2.15,0.49,2.75-0.31c0.28-0.38,0.35-0.9,0.66-1.26c0.47-0.54,1.3-0.53,2.01-0.4
						s1.45,0.34,2.11,0.06c0.8-0.34,1.18-1.26,1.89-1.76c0.83-0.58,1.94-0.47,2.95-0.41c0.84,0.05,1.69,0.05,2.51-0.15
						c0.81-0.21,1.59-0.65,2.07-1.34c0.12-0.18,0.23-0.37,0.41-0.49c0.24-0.16,0.56-0.15,0.85-0.14c0.78,0.01,1.55-0.11,2.28-0.37
						c0.36-0.12,0.78-0.41,0.68-0.78c-0.04-0.16-0.18-0.28-0.26-0.43c-0.26-0.51,0.26-1.09,0.76-1.36c0.51-0.27,1.14-0.53,1.26-1.1
						c0.16-0.72-0.73-1.31-1.46-1.19c-0.73,0.12-1.3,0.67-1.86,1.16c-2.37,2.07-5.34,3.31-8.3,4.38c-1.42,0.51-2.85,1-4.3,1.41
						c-2.14,0.61-4.33,1.08-6.53,1.4C225.49,268.43,222.76,268.01,222.3,270.2z"/>
					<path class="st15" d="M235.12,267.7c-0.36-0.23-0.69-0.53-0.9-0.9c-0.03-0.04-0.05-0.1-0.07-0.15
						c-0.15,0.04-0.29,0.09-0.44,0.14c-2.14,0.61-4.33,1.08-6.53,1.4c-1.69,0.24-4.42-0.18-4.88,2.01
						c-0.15,0.69,0.37,1.55,1.07,1.46c0.51-0.07,0.85-0.57,1.32-0.76c0.64-0.25,1.34,0.11,1.98,0.37c0.92,0.38,2.15,0.49,2.75-0.31
						c0.28-0.38,0.35-0.9,0.66-1.26c0.47-0.54,1.3-0.53,2.01-0.4s1.45,0.34,2.11,0.06c0.62-0.26,1-0.87,1.46-1.37
						C235.48,267.9,235.29,267.81,235.12,267.7z"/>
				</g>
			</g>
			<g>
				<defs>
					<path id="XMLID_300_" d="M259,229.28l-12.47-5.68l-3.38,9.67c-0.33,0.93-0.16,1.98,0.48,2.81c1.45,1.88,4.45,4.99,8.56,5.16
						c1.93,0.08,2.45-2.5,2.45-2.5L259,229.28z"/>
				</defs>
				<use xlink:href="#XMLID_300_"  style="overflow:visible;fill:#AB6D50;"/>
				<clipPath id="XMLID_13_">
					<use xlink:href="#XMLID_300_"  style="overflow:visible;"/>
				</clipPath>
				<path class="st26" d="M259.15,236.31c-10.73-1.83-13.03-12.94-12.64-13.3c0.5-0.45,1.51-0.21,2.3,0.1
					c5.6,2.2,13.12,6.52,13.57,8.87C262.82,234.32,260.66,236.57,259.15,236.31z"/>
			</g>
			<g>
				<path d="M281.27,190.41c-3.7-0.48-7.09-5.07-3.92-8.02c2.67-2.49,9.38-0.26,9.5,3.48c-1.84-4.3,4.93-5.23,7.63-3.45
					c3.5,2.31,2.88,7.58-0.28,9.87c1.73-0.81,4.66-0.02,5.03,1.98c0.41,2.23-2.44,2.44-3.46,3.66c0.99,0.22,2.09,0.46,2.19,1.62
					c0.08,0.97-0.79,1.98-1.32,2.72c-0.97,1.34-2.18,2.5-3.7,3.27c-2.07,1.05-5.7,1.46-7.36-0.55c-0.38-0.46-0.7-2.41,0.44-1.81
					c-0.68,0.55-2.33,0.42-3.16,0.35c-1.74-0.14-3.93-1-4.9-2.43c-1.17-1.73-0.86-5.6,1.72-6.04c-1.55-0.38-4.33-1.53-3-3.48
					C277.26,190.69,279.29,189.9,281.27,190.41z"/>
				<g>
					<path d="M287.49,199.32c0.3,0.85,0.31,1.76,0.27,2.65c-0.12,2.26-0.6,4.5-1.43,6.62c-0.36,0.93-0.81,1.85-1.53,2.56
						c-1,0.99-2.44,1.48-3.85,1.8c-0.87,0.2-1.87,0.34-2.61-0.15c-0.49-0.33-0.77-0.87-0.92-1.42c-0.53-1.92,0.23-3.93,1-5.77
						c0.73-1.77,1.49-3.56,2.67-5.1c0.88-1.15,2.02-2.17,3.39-2.76C285.97,197.08,286.98,197.87,287.49,199.32z"/>
				</g>
				<g>
					<g>
						<defs>
							<path id="XMLID_5_" d="M284.22,211.65c-0.83,4.09-1.99,7.95-3.49,11.39c-0.01,0.02-0.02,0.05-0.03,0.07
								c-0.1,0.21-0.19,0.42-0.28,0.63c-0.03,0.07-0.07,0.15-0.11,0.23c-1.17,2.41-4,6.46-6.77,8.84c-0.54,0.47-1.26,0.92-2.14,1.3
								c-3.76,1.67-10.28,2.25-16.4-1.42c-12.55-7.53-18.05-23.39-8.6-36.36c0.25-0.35,0.52-0.69,0.79-1.02
								c3.53-4.34,8.53-7.51,13.75-8.66C274.77,183.63,287.69,194.22,284.22,211.65z"/>
						</defs>
						<use xlink:href="#XMLID_5_"  style="overflow:visible;fill:#AB6D50;"/>
						<clipPath id="XMLID_14_">
							<use xlink:href="#XMLID_5_"  style="overflow:visible;"/>
						</clipPath>
						<path class="st27" d="M252.04,232.64c2.03,1.33,4.23,2.35,6.44,3.34c4.23,1.88,8.76,2.45,13.24,1.11
							c2.83-0.85,5.29-2.33,7.48-4.18c3.73-4.54,6.59-9.87,8.03-15.68c1.79-7.24,1.3-15.18-1.84-21.88
							c-0.84-1.81-2.1-3.69-3.98-4.01c0.68,5.94,1.34,11.94,0.88,17.9c-0.46,5.97-2.11,11.98-5.62,16.68
							c-3.44,4.6-8.65,7.73-14.18,8.3c-3.35,0.34-6.77-0.28-9.83-1.76c-1.52-0.73-2.91-1.69-4.21-2.81
							C249.54,230.76,250.72,231.78,252.04,232.64z"/>
					</g>
					<g class="st28">
						<path class="st17" d="M280.7,223.11c-0.1,0.21-0.19,0.42-0.28,0.63c-0.03,0.07-0.07,0.15-0.11,0.23
							c-1.17,2.41-4,6.46-6.77,8.84c-0.54,0.47-1.26,0.92-2.14,1.3c-0.05-0.09-0.11-0.19-0.15-0.3c-0.34-0.82-0.14-1.75,0.16-2.6
							c1.02-2.99,3.15-5.64,5.93-7.36C278.35,223.22,279.61,222.71,280.7,223.11z"/>
						<path class="st17" d="M248.73,226.14c-0.15-0.18-0.29-0.35-0.43-0.53c-2.22-2.98-4.21-8.56-0.51-11.63
							c1.83-1.52,4.56-1.45,6.43-0.23c1.88,1.22,3,3.36,3.52,5.59c0.39,1.66,0.49,3.46-0.05,5.14c-0.54,1.68-1.78,3.23-3.42,3.83
							C252.12,229.1,250.08,227.71,248.73,226.14z"/>
					</g>
				</g>
				<g>
					<path d="M275.05,219.57c-0.5,1.2-0.28,2.4,0.48,2.68c0.76,0.29,1.78-0.45,2.28-1.65c0.5-1.2,0.28-2.4-0.48-2.68
						C276.56,217.64,275.55,218.38,275.05,219.57z"/>
					<path d="M259.18,213.97c-0.52,1.24-0.22,2.51,0.66,2.84c0.88,0.33,2.01-0.41,2.53-1.65c0.52-1.24,0.22-2.51-0.66-2.84
						C260.83,211.99,259.7,212.73,259.18,213.97z"/>
					<path d="M277.78,209.57c-0.45,0.64,0.61,0.78,2.06,1.54c1.45,0.77,1.23,2.13,1.71,2.18c0.48,0.05,0.98-2.33-0.84-3.57
						C279.32,208.78,278.08,209.15,277.78,209.57z"/>
					<path d="M268.46,205.82c-0.01,0.66-1.87-0.01-3.96-0.61c-2.09-0.6-3.98,0.58-4.09-0.02c-0.11-0.6,1.83-2.05,4.43-1.55
						C267.43,204.13,268.47,205.38,268.46,205.82z"/>
					<path class="st17" d="M272.86,220.17c-0.16-0.38-0.68-0.58-0.99-0.8c-0.39-0.28-0.77-0.6-1.08-0.95
						c-0.4-0.46-0.39-0.91-0.25-1.47c0.25-0.96,0.62-1.93,1.08-2.81c0.07-0.12-0.11-0.28-0.22-0.16c-0.59,0.67-1.08,1.38-1.38,2.21
						c-0.3,0.82-0.51,1.67,0.07,2.42c0.52,0.68,1.28,1.16,2.01,1.61c0.31,0.19-0.02,0.33-0.23,0.46c-0.21,0.14-0.43,0.26-0.65,0.36
						c-0.45,0.21-0.93,0.38-1.41,0.5c-0.2,0.05-0.17,0.38,0.05,0.36c0.97-0.09,1.85-0.42,2.63-0.98
						C272.76,220.74,273,220.51,272.86,220.17z"/>
					<path class="st2" d="M262.45,221.45c1.5-0.99,2.88,1.12,4.67,1.58c1.8,0.46,3.71,0.24,3.71,1.41s-2.78,3.32-5.85,2.15
						C261.92,225.42,261.36,222.17,262.45,221.45z"/>
				</g>
				<g>
					<defs>
						<path id="XMLID_6_" d="M286,192.25c-4.59-5.89-11.13-10.57-18.51-12.55c-1.62-0.43-3.28-0.73-4.96-0.88
							c-2.21-0.2-4.45-0.14-6.64,0.23c-0.76,0.11-1.49,0.27-2.24,0.46c-0.58,0.16-1.16,0.32-1.74,0.53
							c-1.94,0.65-3.86,1.62-5.59,2.83c-2.58,1.76-4.77,4.07-6.12,6.77c-0.02,0.04-0.03,0.08-0.05,0.11
							c-1.22,2.48-1.84,5.19-2.11,7.9c-0.09,1.27-0.15,2.55,0.02,3.82c0.16,1.21,0.46,2.54,1.26,3.53c0.59,0.73,1.42,0.9,2.29,0.92
							c0.08-0.06,0.16-0.12,0.25-0.16c1.23-0.54,2.76-0.12,3.8,0.62c0.54,0.38,1.02,0.84,1.22,1.46c0.05,0.14,0.08,0.27,0.1,0.41
							c0.01,0,0.03,0.01,0.04,0.01c0.1,0.39,0.19,0.78,0.24,1.18c0.18,1.52-0.06,3.02-0.55,4.46c-0.07,0.19-0.14,0.38-0.22,0.56
							c-0.1,0.24,0.28,0.35,0.41,0.17c1.23-1.66,1.75-3.6,1.78-5.62c0-0.2-0.02-0.41-0.03-0.61c0.58,0.79,0.95,1.65,1.27,2.56
							c0.01,0.08,0.02,0.15,0.03,0.23c0.02,0.2,0.32,0.27,0.39,0.05c0.43-1.38,0.01-2.91-0.66-4.16c-0.08-0.16-0.19-0.3-0.29-0.45
							c0.56-1.15,0.94-2.36,1.32-3.57c0.34-1.07,0.51-2.15,1.58-2.8c1.06-0.64,2.18-0.93,3.14-1.73c0.97-0.81,1.79-1.77,2.64-2.7
							c1.61-1.75,3.44-3.12,5.82-3.79c0.26-0.07,1.85-0.25,1.94-0.41c0.23-0.41-2.73-4.56-2.51-4.96c0.19,0.36,3.58,4.45,3.8,4.81
							c0.09-0.01,0.18-0.02,0.28-0.03c2.84-0.19,5.78-0.15,8.5,0.74c3.97,1.3,7.02,4.25,8.43,7.9c0.27,0.42,0.53,0.84,0.83,1.24
							c0.33,0.45,0.69,0.89,1.13,1.26c0.16,0.13,0.31,0.24,0.55,0.35c0.02,0.01,0.07,0.03,0.22,0.07c0.05,0.01,0.07,0.02,0.07,0.02
							c0,0,0.02-0.01,0.08-0.01c0.12,0,0.28-0.03,0.44-0.13c0.2-0.11,0.36-0.25,0.56-0.46c0.17-0.17,0.33-0.36,0.48-0.55
							c0.27-0.77,0.36-1.62,0.38-2.47C289.12,196.61,287.68,194.41,286,192.25z"/>
					</defs>
					<use xlink:href="#XMLID_6_"  style="overflow:visible;"/>
					<clipPath id="XMLID_15_">
						<use xlink:href="#XMLID_6_"  style="overflow:visible;"/>
					</clipPath>
					<path class="st29" d="M262.31,187.17c0.26,0.53,0.51,1.08,0.52,1.72c0.01,0.64-0.27,1.4-0.85,1.88
						c-0.54,0.43-1.2,0.54-1.81,0.63c-1.32,0.19-2.9,0.26-3.34-0.83c-0.09-0.22-0.12-0.49-0.26-0.68c-0.43-0.63-1.56-0.25-2.39-0.35
						c-0.79-0.09-1.34-0.67-1.59-1.38c-0.25-0.71-0.23-1.54-0.14-2.37c0.22-2.11,2.39-7.23,5.27-5.75c1.06,0.55,1.71,2.11,2.32,3.07
						C260.86,184.41,261.62,185.77,262.31,187.17z"/>
					<path class="st29" d="M267.11,188.88c0.29,0.31,0.59,0.63,0.97,0.81c0.34,0.16,0.71,0.2,1.08,0.24c1,0.09,2.16,0.05,2.8-0.72
						c0.56-0.68,0.45-1.81-0.23-2.37c-0.37-0.3-0.86-0.43-1.28-0.65c-0.43-0.23-0.83-0.63-0.8-1.11c0.02-0.3,0.21-0.57,0.25-0.87
						c0.09-0.67-0.57-1.21-1.22-1.4c-0.65-0.19-1.36-0.19-1.95-0.52c-0.47-0.26-0.8-0.69-1.19-1.06c-0.84-0.81-1.94-1.33-3.1-1.46
						c-0.83-0.1-2.13,0.13-2.24,1.17c-0.1,1,1.29,1.84,1.9,2.44C263.87,185.12,265.43,187.06,267.11,188.88z"/>
				</g>
				<g>
					<path class="st12" d="M246.46,207.52c-0.45-3.09-2.25-5.88-5.85-5.57c-1.17,0.1-2.21,0.85-2.83,1.8
						c-0.62,0.95-0.87,2.07-0.96,3.19c-0.22,2.81,0.61,5.77,2.67,7.8c0.78,0.77,1.83,1.43,2.95,1.29c1.53-0.19,2.61-1.52,3.24-2.75
						C246.45,211.77,246.76,209.58,246.46,207.52z"/>
					<path class="st30" d="M243.34,204.08c0.63,0.99,0.81,2.21,1.4,3.17c0.42,0.68,0.58,1.58,1.75,0.83
						c0.01-0.01,0.02-0.02,0.03-0.03c-0.02-0.18-0.03-0.36-0.06-0.54c-0.42-2.9-2.02-5.53-5.18-5.59
						C242.1,202.46,242.79,203.22,243.34,204.08z"/>
					<path class="st17" d="M239.81,204.61c0.36-0.15,0.77-0.15,1.15-0.05c0.87,0.24,1.48,0.99,1.78,1.77
						c0.32,0.81,0.46,1.72,0.53,2.59c0.08,0.9,0,1.82-0.26,2.69c-0.05,0.17-0.36,0.1-0.32-0.08c0.32-1.46,0.09-3.06-0.34-4.48
						c-0.07-0.22-0.15-0.43-0.25-0.64c-0.59,0.51-1.01,1.17-1.24,1.9c-0.27,0.88-0.24,1.73-0.15,2.63c0.01,0.09-0.13,0.14-0.16,0.05
						c-0.73-1.7-0.16-3.79,1.37-4.91c-0.2-0.32-0.45-0.6-0.8-0.79c-0.54-0.29-1.4-0.29-1.86,0.15c-0.09,0.08-0.25-0.03-0.19-0.14
						C239.24,204.99,239.46,204.75,239.81,204.61z"/>
				</g>
				<path d="M240.17,190.77c-1.61,1.18-4.37,0.81-6.19,0.42c-2.52-0.55-4.63-2.06-5.03-4.6c-0.69-4.35,2.09-8.95,6.05-11.05
					c-1.09-0.21-1.77-1.29-1.93-2.27c-0.43-2.63,1.69-5.44,3.62-7.05c2.3-1.92,4.98-2.61,7.7-1.02c0.95,0.56,1.75,1.25,2.34,2.15
					c0.3,0.46,0.49,1.06,0.86,1.44c0.71-0.84,0.9-1.97,1.9-2.7c1.38-1.01,3.19-1.46,4.85-0.91c1.56,0.51,2.99,1.67,3.6,3.16
					c0.26,0.63,0.59,1.8,0.08,2.37c0.82-1.26,2.73-0.92,3.97-0.44c2.4,0.95,3.4,3.1,3.06,5.47c-0.39,2.77-2.33,5.37-4.83,6.85
					c-0.77,0.45-1.79,0.78-2.69,0.88c-0.45,0.05-0.91-0.07-1.35,0.04c0.83,1.98-1.58,3.72-3.19,4.64c-1.13,0.63-2.4,0.89-3.71,0.7
					c-0.66-0.1-1.29-0.49-1.94-0.54c-0.62,2-1.85,3.6-4.15,4.1C241.93,192.66,239.39,192.4,240.17,190.77z"/>
			</g>
		</g>
	</g>
	<g>
		<g>
			<g>
				<path class="st6" d="M487.1,254.65v-8.01h-21.19c-0.71,0-1.29,0.58-1.29,1.29v5.43c0,0.71,0.58,1.29,1.29,1.29H487.1z"/>
				<path class="st31" d="M479.55,246.65h-9.52c-0.4,1.73-0.63,6.18,0.16,8.01h9.34C479.12,251.99,479.19,249.45,479.55,246.65z"/>
				<polygon class="st6" points="516.84,247.45 516.84,246.65 487.1,246.65 487.1,254.65 516.84,254.65 516.84,253.85 
					497.48,253.85 497.48,247.45 				"/>
				<polygon class="st6" points="516.84,247.45 516.84,246.65 487.1,246.65 487.1,254.65 516.84,254.65 516.84,253.85 
					497.48,253.85 497.48,247.45 				"/>
				<polygon class="st31" points="516.84,247.45 516.84,246.65 487.1,246.65 487.1,254.65 516.84,254.65 516.84,253.85 
					497.48,253.85 497.48,247.45 				"/>
				<path class="st2" d="M487.83,252.39v-3.47c0-0.81,0.65-1.46,1.46-1.46h26.93v6.4h-26.93
					C488.48,253.85,487.83,253.2,487.83,252.39z"/>
			</g>
			<g>
				<path class="st21" d="M484.87,262.71v-8.01h-21.19c-0.71,0-1.29,0.58-1.29,1.29v5.43c0,0.71,0.58,1.29,1.29,1.29H484.87z"/>
				<path class="st32" d="M471.23,261.19c-2.14-0.49-4.23-1.21-6.16-2.26c-0.86-0.47-1.69-1-2.48-1.58c-0.07-0.05-0.13-0.1-0.2-0.15
					v4.22c0,0.71,0.58,1.29,1.29,1.29h21.19v-1.14C480.33,262.15,475.71,262.21,471.23,261.19z"/>
				<polygon class="st21" points="514.61,255.51 514.61,254.71 484.87,254.71 484.87,262.71 514.61,262.71 514.61,261.91 
					495.25,261.91 495.25,255.51 				"/>
				<polygon class="st32" points="514.61,255.51 514.61,254.71 484.87,254.71 484.87,262.71 514.61,262.71 514.61,261.91 
					495.25,261.91 495.25,255.51 				"/>
				<path class="st2" d="M485.59,260.45v-3.47c0-0.81,0.65-1.46,1.46-1.46h26.93v6.4h-26.93
					C486.25,261.91,485.59,261.25,485.59,260.45z"/>
			</g>
			<g>
				<path class="st9" d="M483.74,272.67v-10.21h33.66c0.71,0,1.29,0.58,1.29,1.29v7.63c0,0.71-0.58,1.29-1.29,1.29H483.74z"/>
				<path class="st32" d="M510.54,270.89c-3.91-0.47-7.77-1.18-11.59-2.14c-3.37-0.84-6.72-1.91-9.8-3.56
					c-1.45-0.78-2.77-1.7-4.05-2.73h-1.37v10.21h33.66c0.66,0,1.19-0.51,1.26-1.15C515.94,271.48,513.21,271.21,510.54,270.89z"/>
				<polygon class="st9" points="459.69,263.48 459.69,262.46 483.74,262.46 483.74,272.67 459.69,272.67 459.69,271.64 
					472.01,271.64 472.01,263.48 				"/>
				<polygon class="st33" points="459.69,263.48 459.69,262.46 483.74,262.46 483.74,272.67 459.69,272.67 459.69,271.64 
					472.01,271.64 472.01,263.48 				"/>
				<path class="st2" d="M482.92,270.18v-5.24c0-0.81-0.65-1.46-1.46-1.46H460.4v8.16h21.06
					C482.27,271.64,482.92,270.99,482.92,270.18z"/>
				<g>
					<path class="st21" d="M514.43,272.77L514.43,272.77c0.49,0,0.89-0.45,0.89-1.01v-8.55c0-0.56-0.4-1.01-0.89-1.01l0,0
						c-0.49,0-0.89,0.45-0.89,1.01v8.55C513.54,272.32,513.94,272.77,514.43,272.77z"/>
					<path class="st21" d="M487.54,272.77L487.54,272.77c0.49,0,0.89-0.45,0.89-1.01v-8.55c0-0.56-0.4-1.01-0.89-1.01l0,0
						c-0.49,0-0.89,0.45-0.89,1.01v8.55C486.65,272.32,487.05,272.77,487.54,272.77z"/>
				</g>
			</g>
		</g>
		<g>
			<g>
				<polygon class="st9" points="430.64,272.66 372.36,272.66 383.19,231.77 441.47,231.77 				"/>
				<polygon class="st21" points="432.19,272.66 373.9,272.66 384.74,231.77 443.02,231.77 				"/>
				<path class="st34" d="M431.7,266.05c-5.9-0.74-11.58-2.35-17.05-4.67c-5.14-2.18-10.15-4.78-14.6-8.17
					c-4.36-3.32-8.16-7.44-10.65-12.34c-1.27-2.5-2.2-5.16-2.77-7.91c-0.07-0.35-0.17-0.75-0.26-1.18h-1.63l-10.83,40.89h58.28
					l1.69-6.38C433.15,266.21,432.42,266.14,431.7,266.05z"/>
				<g>
					<path class="st9" d="M438.06,234.91l-0.67-0.01c-0.57-0.01-1.07,0.4-1.16,0.96l-0.78,4.63c-0.12,0.68,0.39,1.32,1.09,1.35
						l0.43,0.02c0.56,0.03,1.06-0.36,1.18-0.9l1.02-4.63C439.32,235.61,438.79,234.93,438.06,234.91z"/>
					<circle class="st6" cx="437.61" cy="236.38" r="0.86"/>
				</g>
			</g>
			<g>
				<polygon class="st6" points="418.49,272.66 392.35,272.66 398.14,250.81 424.28,250.81 				"/>
				<polygon class="st35" points="418.49,272.66 392.35,272.66 398.14,250.81 424.28,250.81 				"/>
				<polygon class="st6" points="403.93,272.66 430.07,272.66 424.28,250.81 398.14,250.81 				"/>
				<path class="st36" d="M426.75,272.01c-3.55-0.39-7.07-1.05-10.39-2.4c-3.19-1.3-6.22-3.13-8.96-5.21
					c-2.62-1.98-4.99-4.27-6.93-6.92c-0.3-0.41-0.6-0.83-0.89-1.25l4.36,16.44h26.14l-0.09-0.36
					C428.9,272.22,427.82,272.13,426.75,272.01z"/>
			</g>
		</g>
		<g>
			<path class="st2" d="M346.56,268.81c0,0-2.89-2.51-11.79-3.14l-50.31-0.28c0,0,6.86,0.7,9.33,3.01L346.56,268.81z"/>
			<path class="st37" d="M346.56,268.81c0,0-2.89-2.51-11.79-3.14l-50.31-0.28c0,0,6.86,0.7,9.33,3.01L346.56,268.81z"/>
			<path class="st9" d="M356.75,272.27h-73.51c-0.44,0-0.79-0.35-0.79-0.79v-1.33c0-0.44,0.35-0.79,0.79-0.79h73.51
				c0.44,0,0.79,0.35,0.79,0.79v1.33C357.54,271.92,357.18,272.27,356.75,272.27z"/>
			<path class="st9" d="M356.75,272.27h-24.66c-0.44,0-0.79-0.35-0.79-0.79v-1.33c0-0.44,0.35-0.79,0.79-0.79h24.66
				c0.44,0,0.79,0.35,0.79,0.79v1.33C357.54,271.92,357.18,272.27,356.75,272.27z"/>
			<path class="st37" d="M356.75,272.27h-24.66c-0.44,0-0.79-0.35-0.79-0.79v-1.33c0-0.44,0.35-0.79,0.79-0.79h24.66
				c0.44,0,0.79,0.35,0.79,0.79v1.33C357.54,271.92,357.18,272.27,356.75,272.27z"/>
			<path class="st37" d="M345.39,272.27h0.99c0.21,0,0.38-0.17,0.38-0.38v-2.14c0-0.21-0.17-0.38-0.38-0.38h-0.99
				c-0.21,0-0.38,0.17-0.38,0.38v2.14C345,272.1,345.17,272.27,345.39,272.27z"/>
			<path class="st2" d="M345.77,268.33c-2.48-1.55-13.32-1.68-13.41-1.73l-48.17-0.32l0.59,0.59l-1.29,0.8l1.45,0.54l-1.18,1.16
				h71.57v-1.12C355.34,268.24,349.06,266.4,345.77,268.33z"/>
			<path class="st38" d="M345.77,268.33c-2.4-1.5-12.6-1.67-13.34-1.73c0.07,0.21,0.12,0.43,0.1,0.65c-0.02,0.34-0.19,0.62-0.4,0.87
				c0.27,0.37,0.42,0.77,0.41,1.25h22.79v-1.12C355.34,268.24,349.06,266.4,345.77,268.33z"/>
		</g>
		<g>
			<rect x="277.63" y="286.28" class="st7" width="20.07" height="166.74"/>
			<rect x="512.6" y="286.28" class="st7" width="20.07" height="166.74"/>
			<rect x="277.63" y="286.28" class="st8" width="20.07" height="11.56"/>
			<rect x="512.6" y="286.28" class="st8" width="20.07" height="11.56"/>
			<rect x="264.72" y="275.86" class="st7" width="280.87" height="14.93"/>
			<rect x="264.72" y="275.86" class="st8" width="280.87" height="6.6"/>
			<path class="st7" d="M547.17,277.94H263.13c-1.46,0-2.64-1.18-2.64-2.64V275c0-1.46,1.18-2.64,2.64-2.64h284.04
				c1.46,0,2.64,1.18,2.64,2.64v0.3C549.81,276.75,548.63,277.94,547.17,277.94z"/>
		</g>
		<g>
			<path class="st9" d="M468.26,421.67c-1.98-3.48-5.24-8.63-6.92-8.04c-1.54,0.54-1.97,4.76-2.07,7.93
				c-5.3,1.53-9.39,5.81-10.57,11.16c-3.12,0.4-8.67,1.38-9.08,3.24c-0.43,1.98,6.82,5.09,10.26,6.45
				c2.47,4.99,7.66,8.44,13.69,8.44c8.41,0,15.23-6.7,15.23-14.96C478.81,429.25,474.38,423.61,468.26,421.67z"/>
			<path class="st32" d="M459.39,433.16c-2.58-0.5-4.95-1.75-6.75-3.67c-0.62-0.66-1.16-1.42-1.49-2.22
				c-1.16,1.61-2.01,3.46-2.45,5.46c-3.12,0.4-8.67,1.38-9.08,3.24c-0.43,1.98,6.82,5.09,10.26,6.45c2.47,4.99,7.66,8.44,13.69,8.44
				c8.41,0,15.23-6.7,15.23-14.96c0-2.8-0.79-5.42-2.16-7.66C471.73,431.71,465.46,434.33,459.39,433.16z"/>
			<path class="st9" d="M532.17,429.31c-2.85-14.13-20.43-14.94-32.07-15.48c-1.43-0.07-2.8-0.13-4.05-0.21
				c-7.85-0.51-13-2.62-15.3-6.25c-2.4-3.77-1.8-8.58,1.46-11.7c1.69-1.62,4.23-2.42,6.45-2.04c1.13,0.2,2.66,0.8,3.54,2.54
				c0.47,0.94,0.49,1.88,0.05,2.88c-0.77,1.77-2.9,3.47-5.19,4.14c-1.12,0.33-1.77,1.51-1.44,2.63c0.33,1.12,1.51,1.77,2.63,1.44
				c3.51-1.03,6.61-3.58,7.88-6.51c0.94-2.16,0.89-4.4-0.15-6.47c-1.3-2.6-3.65-4.31-6.61-4.82c-3.57-0.62-7.44,0.59-10.11,3.15
				c-4.73,4.54-5.6,11.54-2.11,17.04c3.07,4.84,9.33,7.6,18.6,8.2c1.28,0.08,2.67,0.15,4.13,0.22c10.94,0.51,25.91,1.2,28.11,12.08
				c0.67,3.33-0.48,7.69-2.86,11.37c-3.69-9.09-15.81-18.35-30.82-18.35c-16.17,0-33.05,11-36.45,20.76
				c-1.3-0.13-2.66,0.05-4.11,0.67c-3.34,1.43-5.94,4.95-6.93,8.37c-0.14,0.49-0.25,1.03-0.09,1.51c0.29,0.86,1.29,1.21,2.17,1.43
				c3.58,0.92,7.23,1.58,10.91,1.97c2.97,0.32,6.26,0.78,9.22,0.08c7,2.06,16.25,2.83,25.28,2.83c18.08,0,31.99-3.4,31.99-13.79
				c0-0.02,0-0.04,0-0.07c0.02-0.03,0.05-0.05,0.07-0.08C530.18,442.66,533.44,435.59,532.17,429.31z"/>
			<path class="st32" d="M493.16,417.6c-1.3-0.44-2.58-0.94-3.83-1.5c-6.28-2.84-12.16-7.91-13.18-15.08
				c-0.2-1.4-0.15-2.8,0.09-4.15c-1.84,4.05-1.61,8.8,0.92,12.78C479.94,414.01,485.32,416.68,493.16,417.6z"/>
			<path class="st32" d="M532.17,429.31c-0.78-3.87-2.67-6.74-5.24-8.88c1.94,2.64,3.44,5.62,3.84,8.91
				c0.53,4.3-0.97,8.73-3.91,11.9c-3.03,3.26-7.21,5.12-11.22,6.85c-10.65,4.6-22.54,2.92-33.53,0.54
				c-2.84-0.61-5.75-1.22-8.66-1.07c-2.88,0.15-5.71,0.76-8.46,1.63c-3.01,0.95-5.87,2.25-8.91,3.1c-1.08,0.3-6.16,1.68-9.38,1.47
				c-0.02,0.24-0.01,0.49,0.07,0.72c0.29,0.86,1.29,1.21,2.17,1.43c3.58,0.92,7.23,1.58,10.91,1.97c2.97,0.32,6.26,0.78,9.22,0.08
				c7,2.06,16.25,2.83,25.28,2.83c18.08,0,31.99-3.4,31.99-13.79c0-0.02,0-0.04,0-0.07c0.02-0.03,0.05-0.05,0.07-0.08
				C530.18,442.66,533.44,435.59,532.17,429.31z"/>
			<g>
				<path class="st32" d="M509.08,433.61c0-0.22-0.31-0.21-0.33,0c-0.05,0.43-0.12,0.86-0.14,1.29c-0.01,0.21-0.03,0.42-0.03,0.63
					c0,0.11,0.01,0.21,0.02,0.32c0.01,0.11,0.02,0.21,0.08,0.3c0.04,0.06,0.14,0.09,0.19,0.02c0.13-0.16,0.16-0.42,0.18-0.62
					c0.02-0.21,0.02-0.42,0.03-0.63C509.11,434.49,509.08,434.05,509.08,433.61z"/>
				<path class="st32" d="M511.01,432.79c-0.14,0.52-0.28,1.03-0.41,1.55c-0.07,0.25-0.13,0.5-0.18,0.75
					c-0.05,0.23-0.13,0.66,0.18,0.75c0.31,0.09,0.44-0.34,0.49-0.56c0.06-0.25,0.11-0.51,0.15-0.76c0.1-0.53,0.19-1.06,0.28-1.59
					C511.58,432.6,511.1,432.45,511.01,432.79z"/>
				<path class="st32" d="M512.95,434.77c-0.11-0.04-0.26-0.01-0.32,0.1c-0.17,0.34-0.34,0.68-0.51,1.02
					c-0.09,0.17-0.2,0.35-0.26,0.54c-0.03,0.1-0.05,0.22-0.05,0.32c0,0.1,0.04,0.21,0.14,0.25c0.1,0.04,0.21,0,0.29-0.08
					c0.07-0.07,0.16-0.17,0.2-0.25c0.09-0.17,0.15-0.37,0.23-0.55c0.14-0.35,0.29-0.7,0.43-1.05
					C513.14,434.96,513.05,434.81,512.95,434.77z"/>
				<path class="st32" d="M462.27,424.38c-0.11-0.12-0.23-0.24-0.35-0.36c-0.23-0.23-0.49-0.44-0.73-0.66
					c-0.06-0.06-0.16-0.07-0.23-0.01c-0.06,0.05-0.1,0.15-0.04,0.22c0.2,0.27,0.39,0.56,0.62,0.81c0.11,0.12,0.21,0.24,0.32,0.37
					c0.12,0.14,0.3,0.23,0.47,0.29c0.12,0.04,0.22-0.09,0.19-0.19C462.46,424.68,462.39,424.51,462.27,424.38z"/>
				<path class="st32" d="M463.65,423.89c-0.08-0.16-0.17-0.32-0.26-0.46c-0.19-0.3-0.4-0.59-0.6-0.89
					c-0.12-0.18-0.38-0.03-0.29,0.17c0.15,0.33,0.28,0.66,0.44,0.98c0.08,0.16,0.16,0.32,0.26,0.47c0.05,0.08,0.14,0.14,0.22,0.2
					c0.06,0.05,0.16,0.1,0.23,0.06c0.07-0.04,0.08-0.14,0.07-0.22C463.71,424.1,463.7,423.98,463.65,423.89z"/>
				<path class="st32" d="M465.19,422.63c0-0.14-0.12-0.27-0.27-0.27c-0.15,0.01-0.26,0.12-0.27,0.27l-0.02,0.9
					c0,0.16-0.02,0.33,0.02,0.48c0.02,0.07,0.05,0.14,0.08,0.21c0.03,0.08,0.06,0.13,0.13,0.18c0.03,0.02,0.09,0.02,0.12,0
					c0.07-0.05,0.1-0.1,0.13-0.18c0.03-0.07,0.06-0.14,0.08-0.21c0.04-0.16,0.02-0.32,0.02-0.48L465.19,422.63z"/>
				<path class="st32" d="M470.3,443.23c-0.2-0.07-0.39-0.13-0.59-0.17c-0.43-0.1-0.86-0.2-1.29-0.3c-0.15-0.03-0.31,0.05-0.35,0.2
					c-0.04,0.16,0.05,0.3,0.2,0.35c0.42,0.15,0.83,0.3,1.25,0.45c0.2,0.07,0.39,0.13,0.59,0.18c0.18,0.04,0.57,0.04,0.64-0.19
					C470.81,443.49,470.48,443.29,470.3,443.23z"/>
				<path class="st32" d="M471.34,442.88c-0.01-0.04-0.01-0.07-0.03-0.11c-0.01-0.03-0.03-0.05-0.05-0.08
					c-0.05-0.08-0.11-0.13-0.18-0.18c-0.12-0.1-0.24-0.18-0.36-0.27c-0.21-0.15-0.42-0.3-0.63-0.44c-0.11-0.08-0.27-0.03-0.34,0.07
					c-0.08,0.1-0.07,0.26,0.02,0.35c0.2,0.19,0.4,0.39,0.6,0.58c0.1,0.1,0.2,0.19,0.31,0.27c0.06,0.05,0.12,0.09,0.19,0.11
					c0.03,0.01,0.06,0.02,0.09,0.03c0.03,0.01,0.07,0.01,0.1,0.01c-0.04,0,0.06,0,0.06,0c0.04,0,0.08-0.01,0.12-0.02
					c0.05-0.02,0.11-0.06,0.12-0.12c0-0.03,0.01-0.06,0.01-0.09C471.38,442.95,471.36,442.92,471.34,442.88z"/>
				<path class="st32" d="M472.69,441.16c-0.06-0.14-0.13-0.27-0.2-0.41c-0.14-0.28-0.28-0.56-0.42-0.85
					c-0.07-0.14-0.29-0.19-0.42-0.11c-0.15,0.1-0.18,0.26-0.11,0.42c0.12,0.29,0.24,0.57,0.36,0.86c0.06,0.14,0.11,0.29,0.18,0.42
					c0.04,0.08,0.11,0.14,0.17,0.21c0.06,0.07,0.13,0.1,0.2,0.14c0.1,0.05,0.22,0.01,0.25-0.1
					C472.78,441.56,472.77,441.33,472.69,441.16z"/>
				<path class="st32" d="M489.27,428.58c-0.07-0.06-0.14-0.12-0.22-0.17c-0.03-0.02-0.06-0.04-0.09-0.06
					c-0.01-0.01-0.03-0.02-0.04-0.03c-0.01-0.01-0.05-0.04-0.02-0.01c-0.06-0.05-0.12-0.1-0.18-0.15c-0.11-0.1-0.22-0.21-0.32-0.33
					c-0.01-0.02-0.03-0.03-0.04-0.05c0.02,0.02,0,0-0.01-0.01c-0.02-0.03-0.04-0.06-0.07-0.09c-0.05-0.07-0.09-0.14-0.13-0.21
					c-0.05-0.09-0.18-0.12-0.27-0.07c-0.1,0.06-0.12,0.17-0.07,0.27c0.15,0.3,0.34,0.58,0.57,0.82c0.11,0.12,0.23,0.22,0.35,0.32
					c0.04,0.03,0.09,0.07,0.13,0.1c0.04,0.02,0.08,0.03,0.11,0.05c0.08,0.03,0.14,0.04,0.22,0.03c0.03,0,0.06-0.01,0.09-0.02
					c0.06-0.01,0.11-0.1,0.09-0.16C489.35,428.73,489.33,428.64,489.27,428.58z"/>
				<path class="st32" d="M490.74,427.31c-0.03-0.13-0.07-0.27-0.12-0.39c-0.09-0.26-0.21-0.51-0.34-0.75
					c-0.04-0.07-0.14-0.1-0.22-0.06c-0.08,0.05-0.09,0.14-0.06,0.22c0.1,0.23,0.19,0.47,0.25,0.71c0.03,0.12,0.06,0.24,0.08,0.36
					c0.01,0.06,0.03,0.12,0.05,0.18c0.01,0.04,0.02,0.08,0.04,0.12c0.02,0.03,0.04,0.05,0.06,0.08c0.07,0.1,0.2,0.08,0.25-0.03
					c0.03-0.08,0.04-0.14,0.04-0.22C490.76,427.45,490.76,427.38,490.74,427.31z"/>
				<path class="st32" d="M502.75,446.81c-0.05-0.18-0.1-0.35-0.14-0.53c-0.04-0.18-0.08-0.4-0.23-0.52
					c-0.01-0.01-0.02-0.01-0.03-0.02c-0.11-0.09-0.31-0.11-0.38,0.05c0.03-0.03,0.02-0.02-0.03,0.05c-0.03,0.05-0.04,0.1-0.04,0.15
					c0,0.07,0.01,0.13,0.02,0.2c0.02,0.09,0.04,0.18,0.07,0.26c0.06,0.18,0.12,0.36,0.19,0.54c0.14,0.37,0.34,0.72,0.54,1.05
					c0.1,0.17,0.38,0.06,0.32-0.14C502.93,447.54,502.85,447.17,502.75,446.81z"/>
				<path class="st32" d="M505.06,445.38c-0.01-0.03-0.01-0.07-0.03-0.1c-0.06-0.1-0.18-0.12-0.28-0.07
					c-0.04,0.02-0.06,0.04-0.09,0.07c-0.17,0.11-0.23,0.34-0.28,0.52c-0.05,0.18-0.1,0.36-0.14,0.55c-0.08,0.39-0.15,0.77-0.21,1.16
					c-0.01,0.08,0.01,0.16,0.09,0.19c0.07,0.03,0.17,0.01,0.2-0.07c0.17-0.37,0.34-0.73,0.49-1.11c0.07-0.18,0.14-0.37,0.2-0.56
					C505.08,445.78,505.15,445.57,505.06,445.38z"/>
				<path class="st32" d="M506.62,447.28c-0.09-0.17-0.32-0.09-0.42,0.01c-0.09,0.08-0.14,0.18-0.2,0.28
					c-0.05,0.09-0.12,0.17-0.16,0.27c-0.11,0.21-0.21,0.42-0.31,0.63c-0.04,0.09-0.03,0.19,0.05,0.25c0.07,0.05,0.19,0.06,0.25-0.01
					c0.13-0.16,0.26-0.31,0.38-0.47c0.14-0.17,0.26-0.35,0.38-0.54C506.66,447.58,506.7,447.41,506.62,447.28z"/>
				<path class="st32" d="M485.63,446.45c-0.01-0.11-0.08-0.18-0.16-0.25c-0.05-0.05-0.1-0.1-0.15-0.14
					c-0.1-0.09-0.21-0.18-0.31-0.26c-0.21-0.18-0.42-0.35-0.63-0.53c-0.09-0.08-0.24-0.1-0.33,0c-0.09,0.1-0.09,0.23,0,0.33
					c0.19,0.2,0.37,0.41,0.56,0.61c0.09,0.1,0.18,0.2,0.28,0.3c0.05,0.05,0.1,0.09,0.14,0.14c0.04,0.04,0.08,0.08,0.12,0.11
					c0.06,0.04,0.14,0.05,0.21,0.06c0.09,0.01,0.17-0.05,0.22-0.11C485.64,446.62,485.64,446.55,485.63,446.45z"/>
				<path class="st32" d="M486.98,446.87c-0.01-0.07-0.03-0.15-0.05-0.22c-0.04-0.13-0.07-0.27-0.11-0.4l-0.11-0.4
					c-0.02-0.08-0.05-0.16-0.09-0.23c-0.02-0.04-0.03-0.07-0.06-0.1c-0.03-0.03-0.06-0.04-0.08-0.07c-0.07-0.07-0.2-0.03-0.22,0.06
					c-0.01,0.04-0.03,0.07-0.04,0.1c-0.01,0.04-0.01,0.08,0,0.12c0,0.08,0.02,0.17,0.03,0.25c0.03,0.13,0.06,0.27,0.09,0.4
					c0.03,0.13,0.06,0.27,0.09,0.4c0.02,0.07,0.04,0.14,0.06,0.21c0.01,0.04,0.02,0.08,0.04,0.12c0.02,0.04,0.06,0.07,0.1,0.11
					c0.11,0.11,0.28,0.05,0.33-0.09c0.02-0.05,0.04-0.09,0.03-0.14C487,446.96,486.99,446.92,486.98,446.87z"/>
			</g>
		</g>
	</g>
	<g>
		<rect x="318.09" y="88.39" class="st9" width="152.33" height="100.77"/>
		<path class="st9" d="M423.76,187.65c0.08,0.37-0.37,24.57-0.37,24.57l-13.03-24.44L423.76,187.65z"/>
		<g>
			<rect x="321.97" y="92.8" class="st2" width="144.57" height="91.96"/>
			<g>
				<path class="st21" d="M321.97,168.13h122.39c1.63,0,2.96-1.32,2.96-2.96V92.8H321.97V168.13z"/>
				<path class="st39" d="M321.97,162.09h115.31c0.95,0,1.72-0.77,1.72-1.72V92.8H321.97V162.09z"/>
				<g>
					<path class="st21" d="M354.45,103.5c-0.25-0.6-0.89-0.86-1.46-1.21c-0.64-0.39-1.06-0.86-1.1-1.57
						c-0.02-0.38-0.63-0.38-0.78-0.1c-0.08,0.16-0.53,0.92-0.81,0.56c-0.08-0.11-0.02-0.33,0.02-0.48c0.1-0.27,0.2-0.54,0.29-0.81
						c0.1-0.3-0.34-0.57-0.57-0.3c-0.32,0.37-0.65,1.06-0.55,1.62c-0.18,0.38-0.38,0.74-0.61,1.09c-0.38,0.57-1.12,1.67-2.06,1.27
						c-0.45-0.19-0.5-0.81-0.57-1.19c-0.08-0.45-0.11-0.9-0.1-1.36c0.03-0.94,0.24-1.85,0.66-2.71c0.11-0.23-0.28-0.37-0.4-0.15
						c-0.57,1.02-0.88,2.15-0.86,3.31c0.01,0.54,0.08,1.09,0.23,1.62c0.12,0.45,0.34,0.85,0.85,1.03c1.08,0.38,1.92-0.42,2.45-1.12
						c0.3-0.4,0.55-0.81,0.77-1.24c0.03,0.02,0.06,0.05,0.1,0.08c0.54,0.29,1.01,0.12,1.37-0.2c0.49,1.03,1.72,1.62,2.88,2.1
						C354.36,103.81,354.51,103.64,354.45,103.5z"/>
					<path class="st21" d="M356.27,107.2c-4.63-0.55-9.41-0.53-14.04-0.34c-0.35,0.01-0.25,0.48,0.09,0.47
						c2.34-0.02,4.68,0.03,7.03,0.12c2.28,0.09,4.55,0.31,6.83,0.45C356.69,107.94,356.78,107.27,356.27,107.2z"/>
					<path class="st21" d="M366.62,107.5c-0.36-0.32-0.95-0.31-1.42-0.36c-0.54-0.06-1.09-0.1-1.63-0.12c-0.15-0.01-0.3,0-0.46,0
						c0-0.93,0-1.86-0.03-2.8c-0.01-0.2-0.35-0.26-0.37-0.05c-0.09,0.94-0.15,1.89-0.21,2.84c-0.72,0.01-1.45,0.04-2.16,0.11
						c-0.32,0.03-0.23,0.44,0.08,0.43c0.68-0.02,1.36-0.01,2.05,0.01c-0.01,0.17-0.03,0.34-0.04,0.51
						c-0.01,0.31-0.03,0.62-0.04,0.94c-0.01,0.31-0.07,0.65-0.03,0.96c0.02,0.18,0.15,0.4,0.35,0.48c0.17,0.07,0.44,0.01,0.49-0.17
						c0.02-0.08,0-0.14-0.04-0.19c0-0.01,0-0.01-0.01-0.04c-0.02-0.03-0.04-0.06-0.06-0.09c-0.04-0.11-0.02-0.22-0.02-0.34
						c0.01-0.23,0.01-0.47,0.02-0.7c0.01-0.44,0.02-0.89,0.02-1.33c0.15,0.01,0.29,0.01,0.44,0.02c0.5,0.03,1.01,0.07,1.51,0.13
						c0.45,0.05,1.05,0.24,1.46,0.06C366.65,107.76,366.74,107.6,366.62,107.5z"/>
					<path class="st21" d="M356.64,116.07c-1.85-0.28-2.55-2.2-2.84-3.61c-0.06-0.3-0.51-0.34-0.65-0.08
						c-0.28,0.52-0.58,1.03-0.93,1.51c-0.18,0.25-0.74,1.24-1.2,1.09c-0.42-0.13-0.44-1.21-0.48-1.52
						c-0.07-0.61-0.04-1.22,0.06-1.82c0.03-0.36-0.56-0.43-0.63-0.08c-0.06,0.29-0.09,0.58-0.11,0.87
						c-0.11,0.57-0.31,1.13-0.59,1.65c-0.23,0.41-0.5,0.8-0.82,1.16c-0.17,0.19-0.35,0.37-0.55,0.54c-0.21,0.18-0.48,0.45-0.78,0.28
						c-0.39-0.21-0.35-0.93-0.38-1.29c-0.05-0.53-0.06-1.06-0.02-1.58c0.07-1.03,0.31-2.02,0.69-2.98c0.1-0.24-0.32-0.4-0.42-0.16
						c-0.52,1.19-0.82,2.45-0.85,3.73c-0.02,0.62,0.02,1.26,0.14,1.88c0.08,0.39,0.23,0.83,0.7,0.97c0.54,0.17,1.01-0.17,1.36-0.48
						c0.44-0.39,0.84-0.82,1.16-1.29c0.17-0.25,0.32-0.5,0.45-0.77c0,0.01,0,0.01,0,0.02c0.1,0.54,0.24,1.3,0.95,1.46
						c0.66,0.15,1.14-0.35,1.48-0.77c0.36-0.45,0.67-0.93,0.97-1.42c0.2,0.73,0.5,1.44,0.98,2.05c0.54,0.69,1.44,1.32,2.39,0.96
						C356.88,116.34,356.84,116.1,356.64,116.07z"/>
					<path class="st21" d="M376.49,109.92c-0.04-0.28-0.3-0.47-0.52-0.66c-0.25-0.22-0.51-0.43-0.76-0.65
						c-0.26-0.22-0.52-0.44-0.79-0.65c0.23-0.43,0.45-0.87,0.64-1.31c0.23-0.55,0.43-1.14,0.91-1.56c0.24-0.21-0.07-0.58-0.34-0.38
						c-0.51,0.38-0.82,0.89-1.11,1.42c-0.24,0.44-0.49,0.88-0.74,1.31c-0.06-0.05-0.11-0.09-0.17-0.14c-1.04-0.86-2.1-1.7-3.15-2.54
						c-0.17-0.14-0.44,0.1-0.28,0.25c0.98,0.92,1.95,1.83,2.94,2.74c0.11,0.1,0.21,0.19,0.32,0.29c-0.35,0.58-0.73,1.15-1.13,1.7
						c-0.22,0.3-0.43,0.6-0.65,0.9c-0.1,0.13-0.23,0.27-0.31,0.41c-0.02,0.04-0.02,0.09-0.03,0.13c-0.05,0.06-0.07,0.13-0.05,0.22
						c0.04,0.19,0.26,0.29,0.45,0.3c0.17,0.02,0.35-0.04,0.45-0.16c0.71-0.94,1.34-1.92,1.91-2.94c0.17,0.15,0.33,0.31,0.5,0.46
						c0.25,0.22,0.5,0.44,0.75,0.66c0.24,0.21,0.48,0.47,0.82,0.51C376.36,110.24,376.52,110.1,376.49,109.92z"/>
					<path class="st21" d="M379.52,104.06c-0.19,0.02-0.37,0.06-0.56,0.09c0.16-0.35,0.42-0.67,0.57-1.03
						c0.18-0.43,0.25-0.97-0.06-1.38c-0.32-0.42-0.94-0.56-1.47-0.45c-0.59,0.12-1.02,0.52-1.42,0.9c-0.15,0.14,0.12,0.37,0.28,0.24
						c0.35-0.28,0.74-0.61,1.22-0.68c0.37-0.05,0.79,0.06,0.91,0.41c0.11,0.34-0.08,0.71-0.26,1c-0.27,0.43-0.59,0.84-0.63,1.35
						c-0.02,0.21,0.18,0.41,0.43,0.37c0.37-0.05,0.75-0.09,1.11-0.15c0.22-0.04,0.8-0.17,0.74-0.46
						C380.32,104,379.74,104.03,379.52,104.06z"/>
					<path class="st21" d="M345.47,136.83c-1.56-0.39-1.7-1.85-1.76-3.05c-0.02-0.38-0.72-0.45-0.83-0.1
						c-0.3,0.89-0.67,1.76-1.15,2.58c-0.12,0.2-0.18,0.46-0.46,0.44c-0.26-0.02-0.29-0.28-0.38-0.48c-0.19-0.44-0.29-0.89-0.34-1.36
						c-0.04-0.36-0.73-0.47-0.84-0.1c-0.14,0.49-0.33,0.96-0.62,1.39c-0.21,0.32-0.98,1.5-1.41,0.8c-0.25-0.41-0.2-1.15-0.19-1.58
						c0.01-0.55,0.1-1.08,0.23-1.61c0.08-0.35-0.6-0.53-0.7-0.17c-0.01,0.03-0.01,0.06-0.02,0.08l-0.01,0
						c-0.21,1.03-0.66,2.03-1.29,2.9c-0.44,0.61-1.74,2.37-2.76,2.01c-1-0.35-0.92-2.36-0.91-3.07c0.02-1.12,0.23-2.24,0.61-3.3
						c0.09-0.24-0.32-0.4-0.42-0.16c-0.59,1.34-0.87,2.75-0.82,4.21c0.03,0.97,0.11,2.63,1.43,2.96c1.27,0.32,2.43-1.01,3.07-1.78
						c0.31-0.37,0.57-0.77,0.81-1.18c0.04,0.59,0.13,1.32,0.76,1.65c1.02,0.53,1.93-0.56,2.49-1.6c0.27,0.79,0.76,1.52,1.59,1.26
						c0.59-0.19,0.88-0.84,1.13-1.3c0.14-0.26,0.27-0.54,0.39-0.81c0.29,1,0.89,1.91,2.17,2.08
						C345.72,137.58,345.93,136.94,345.47,136.83z"/>
					<path class="st21" d="M351.63,130.22c-0.74,1.84-1.44,3.7-2.13,5.55c-0.35,0.93-0.71,1.85-1.05,2.78
						c-0.32,0.87-0.76,1.79-0.92,2.7c-0.08,0.49,0.75,0.56,0.86,0.17c0.46-0.84,0.7-1.86,1-2.76c0.3-0.9,0.6-1.81,0.9-2.72
						c0.61-1.85,1.23-3.7,1.8-5.55C352.18,130.13,351.74,129.95,351.63,130.22z"/>
					<path class="st21" d="M365.36,137.14c-0.3,0.01-0.56,0.13-0.86,0.15c-0.3,0.01-0.64-0.05-0.92-0.18
						c-0.68-0.31-1.08-0.95-1.37-1.55c-0.16-0.32-0.73-0.34-0.86-0.01c-0.26,0.67-0.57,1.37-1.04,1.94
						c-0.08,0.09-0.18,0.27-0.31,0.29c-0.19,0.03-0.16-0.1-0.21-0.26c-0.11-0.36-0.14-0.75-0.17-1.11
						c-0.03-0.39-0.73-0.47-0.86-0.11c-0.16,0.46-1.11,2.32-1.92,1.8c-0.35-0.22-0.3-1-0.31-1.35c-0.02-0.5,0.03-0.99,0.11-1.47
						c0.06-0.36-0.62-0.55-0.73-0.18c-0.14,0.47-0.33,0.91-0.61,1.32c-0.25,0.36-0.68,0.96-1.13,1.13
						c-0.33,0.13-0.28-0.21-0.31-0.45c-0.03-0.27-0.05-0.55-0.05-0.82c-0.01-0.56,0.04-1.12,0.14-1.67c0.05-0.27-0.4-0.31-0.47-0.06
						c-0.2,0.76-0.31,1.54-0.27,2.33c0.02,0.45-0.04,1.35,0.7,1.39c0.62,0.04,1.23-0.63,1.57-0.99c0.1-0.11,0.17-0.23,0.26-0.35
						c0,0.21-0.01,0.41,0.01,0.62c0.06,0.55,0.22,1.16,0.9,1.35c0.94,0.25,1.73-0.38,2.27-1.12c0.18,0.56,0.54,1.01,1.28,0.79
						c0.53-0.16,0.83-0.6,1.1-1.01c0.19-0.29,0.36-0.6,0.52-0.91c0.39,0.55,0.9,1.04,1.61,1.26c0.73,0.23,1.95,0.21,2.17-0.58
						C365.67,137.24,365.49,137.14,365.36,137.14z"/>
					<path class="st21" d="M378.24,125.68c-0.31-0.8-0.72-1.57-1.2-2.3c-0.16-0.25-0.34-0.55-0.54-0.83
						c0.06-0.03,0.12-0.06,0.18-0.1c0.25-0.16,0.49-0.33,0.72-0.52c0.26-0.21,0.52-0.5,0.33-0.84c-0.15-0.26-0.52-0.42-0.79-0.57
						c-0.29-0.15-0.59-0.29-0.9-0.41c-0.65-0.25-1.33-0.43-2.02-0.54c-0.2-0.03-0.43,0.15-0.37,0.34c0.17,0.52,0.3,1.04,0.35,1.57
						c0.05,0.53,0,1.06-0.11,1.59c-0.05,0.24,0.35,0.27,0.41,0.05c0.25-0.9,0.31-1.91,0.12-2.85c0.4,0.09,0.8,0.19,1.19,0.34
						c0.26,0.1,0.52,0.21,0.76,0.33c0.11,0.05,0.21,0.11,0.31,0.17c0.11,0.06,0.24,0.17,0.36,0.22c-0.01,0.01-0.02,0.03-0.04,0.04
						c-0.09,0.08-0.19,0.15-0.29,0.22c-0.21,0.15-0.42,0.29-0.64,0.43h0c-0.15-0.15-0.32-0.27-0.5-0.35
						c-0.19-0.08-0.41,0.08-0.38,0.26c0.03,0.16,0.11,0.31,0.2,0.45c-0.26,0.12-0.6,0.2-0.73,0.45c-0.06,0.13,0.02,0.33,0.18,0.37
						c0.36,0.09,0.68-0.12,0.98-0.27c0.14,0.17,0.29,0.33,0.4,0.49c0.43,0.61,0.81,1.24,1.13,1.9c0.61,1.28,0.99,2.69,0.85,4.07
						c-0.25,2.43-2.6,4.77-5.55,4.3c-0.2-0.03-0.23,0.24-0.03,0.27c2.93,0.59,5.51-1.49,6.09-3.9
						C379.04,128.62,378.79,127.09,378.24,125.68z"/>
					<path class="st21" d="M364.47,152.97c-1.41-0.3-2.83-0.95-3.02-2.37c-0.05-0.4-0.73-0.39-0.79,0c-0.13,0.9-0.27,1.9-0.94,2.61
						c-0.13,0.14-0.42,0.48-0.58,0.22c-0.12-0.2-0.03-0.6-0.01-0.81c0.02-0.28,0.05-0.55,0.1-0.83c0.1-0.32,0.17-0.64,0.19-0.97
						c0.02-0.34-0.59-0.54-0.7-0.17c-0.01,0.03-0.01,0.06-0.02,0.08l0,0c0,0,0,0.01,0,0.01c-0.11,0.4-0.21,0.81-0.28,1.23
						c-0.14,0.33-0.34,0.63-0.59,0.91c-0.5,0.54-1.59,1.33-2.36,0.65c-0.68-0.61-0.76-1.77-0.69-2.56c0.04-0.41,0.12-0.88,0.47-1.17
						c0.34-0.28,0.93-0.32,1.13,0.14c0.08,0.19,0.4,0.07,0.32-0.12c-0.16-0.39-0.6-0.59-1.05-0.61c-0.52-0.02-0.91,0.26-1.16,0.64
						c-0.64,1-0.48,2.59,0.12,3.61c0.66,1.13,2.03,1.12,3.05,0.43c0.26-0.17,0.48-0.37,0.68-0.58c0.05,0.54,0.46,1.16,1.17,0.94
						c0.65-0.2,1.12-0.87,1.38-1.4c0.14-0.29,0.24-0.59,0.32-0.9c0.72,1.03,2.04,1.8,3.32,1.32
						C364.7,153.21,364.64,153,364.47,152.97z"/>
					<path class="st21" d="M386.41,150.86c-0.75,0.24-1.08,0.16-1.82-0.04c-0.34-0.09-0.68-0.13-1.02-0.01
						c-0.57,0.2-0.82,0.73-1.09,1.18c-0.19,0.29-0.42,0.73-0.89,0.66c-0.49-0.07-0.85-0.62-0.99-0.99
						c-0.31-0.79-0.35-1.58-0.95-2.27c-0.21-0.25-0.65-0.19-0.78,0.08c-0.54,1.15-1.26,2.7-2.91,2.76
						c-1.59,0.06-1.92-1.58-2.11-2.65c-0.08-0.43-0.72-0.39-0.81,0c-0.32,1.36-1.47,3.41-3.24,3.57c-2.34,0.21-1.94-3.17-1.48-4.27
						c0.12-0.29-0.37-0.47-0.5-0.19c-0.7,1.46-1.08,4.71,1.46,5.11c1.91,0.3,3.3-1.29,4.06-2.81c0.36,1.05,1.07,1.99,2.48,2.03
						c1.79,0.05,2.82-1.19,3.52-2.48c0.29,0.72,0.32,1.54,0.88,2.18c0.54,0.62,1.45,1.02,2.26,0.6c0.32-0.17,0.54-0.43,0.72-0.71
						c0.19-0.28,0.34-0.75,0.65-0.94c0.38-0.24,1.24,0.24,1.73,0.24c0.55,0,0.95-0.17,1.31-0.52
						C387.15,151.12,386.74,150.75,386.41,150.86z"/>
				</g>
			</g>
			<g>
				<path class="st6" d="M368.51,184.75h70.09c-1.01-5.26-4.77-22.51-10.47-26.37c-4.75-3.2-10.45-5.97-18.16-7
					c-0.52-0.08-1.03-0.13-1.56-0.18c-0.71-0.08-1.42-0.15-2.17-0.18c0,0,0,0-0.02,0c-2.17-0.11-4.49-0.11-6.97,0.06h-0.1
					c-0.5,0.03-1,0.08-1.5,0.14c-0.47,0.03-0.93,0.1-1.4,0.16c-12.41,1.72-23.17,9.1-25.26,19.5c-0.32,1.59-0.6,3.03-0.84,4.32v0.02
					C369.17,180.33,368.72,183.29,368.51,184.75z"/>
				<path class="st4" d="M410,150.95c-0.72,0.43,3.6,2.45-10.46,16.31c-6.48-11.37-2.56-15.62-3.45-15.97
					c-0.89-0.35-10.22,1.97-14.79,5.57c-1.5,3.62-2.61,7.4-3.33,11.25c-0.55,2.97-0.87,5.98-0.93,9c-0.05,2.56,0.11,5.1,0.25,7.65
					h45.12c0-0.05-0.01-0.11-0.01-0.16c-0.39-6.3,1-12.61,2.72-18.63c0.58-2.03,1.14-4.08,1.9-6.05c0.23-0.59,0.49-1.18,0.79-1.75
					C423.57,154.26,410.72,150.52,410,150.95z"/>
				<path class="st40" d="M396.77,152.82c0,0-0.52,4.15,5.3,4.45c5.82,0.3,7.4-4.45,7.4-4.45v-11.32h-12.69V152.82z"/>
				<g>
					<path class="st40" d="M367.11,143.49c0.24-4.13-0.4-8.4-2.47-11.98c-0.47-0.82-1.55-1.68-2.23-1.02
						c-0.3,0.29-0.34,0.75-0.35,1.16c-0.09,3.19,0.21,6.38,0.89,9.5c-0.5-1.06-1.85-1.61-2.97-1.25c-1.12,0.36-1.88,1.56-1.8,2.73
						c-0.29-1.19-2.11-1.33-2.99-0.48c-0.88,0.85-1.02,2.19-1.03,3.42c-0.44-0.6-1.46-0.43-1.94,0.15
						c-0.47,0.58-0.53,1.38-0.53,2.13c0.02,2.29,0.49,4.62,1.7,6.55c1.21,1.94,3.24,3.44,5.52,3.67
						C366.12,158.81,366.83,148.41,367.11,143.49z"/>
					<path class="st40" d="M364.08,155.64c0,0,6-3.39,3.91-7.17c-2.09-3.78-8.21-1.82-6.91,0.39c1.3,2.22,4.17,1.82,4.17,1.82
						L364.08,155.64z"/>
				</g>
				<polygon class="st6" points="352.48,155.64 352.73,184.75 371.86,184.75 370.16,175.22 370.16,175.21 366.56,155.24 
					364.65,155.29 364.63,155.29 364.46,155.31 364.17,155.31 354.31,155.6 				"/>
				<g>
					<path d="M392.82,107.04c-2,0.8-3.48,2.72-4.55,4.5c-1.16,1.93-2.03,4.08-2.39,6.34c-0.33,2.1-0.42,4.76,1.28,6.38
						c0.71,0.68,1.36,0.4,1.77-0.39c1.12-2.16,1.5-4.56,2.25-6.84c0.74-2.27,1.87-4.39,3.33-6.24c0.49-0.62,1.02-1.23,1.26-1.99
						c0.18-0.57,0.14-1.28-0.31-1.7c-0.45-0.44-1.16-0.45-1.77-0.32C393.39,106.83,393.1,106.93,392.82,107.04z"/>
					<path class="st40" d="M386.76,126.31c0.59,10.8,2.8,20.2,14.14,20.66c14.77,0.6,19.88-10.79,18.98-21.71
						c-0.42-5.07,0.72-12.09-2.26-15.39c-3.32-3.68-10.94-3.43-15.71-3.25C392.95,106.96,386.18,115.7,386.76,126.31z"/>
					<path d="M417.24,126.04c-1.25,3.12-2.89,5.7-4.99,7.51c-1.19,1.02-2.68,1.61-4.3,1.36c-1.69-0.26-3.2-1.26-4.75-1.94
						c-3.71-1.62-7.76-0.41-11.34,0.61c-1.09,0.31-2.28,0.42-3.11-0.57c-0.91-1.09-0.48-4.96-1.98-4.54
						c-1.5,0.42-1.48,19.34,13.61,19.44c14.87,0.1,20.57-9.38,19.29-22.9C418.81,124.96,417.53,125.32,417.24,126.04z"/>
					<path class="st2" d="M404.96,135.62c-0.47-0.72-2.72-0.48-5.38-0.71c-3-0.26-5.11-0.78-5.61-0.47
						c-0.94,0.58,1.34,4.97,5.23,5.24C401.98,139.88,405.83,136.94,404.96,135.62z"/>
					<path d="M424.24,110.36c-1.27-2.69-4.06-4.89-7.09-5c-0.25-1.36-1.67-2.37-3-2.95c-2.86-1.25-6.09-1.18-9.16-1.05
						c-1.93,0.08-3.89,0.2-5.79,0.49c-0.59,0.18-1.18,0.37-1.75,0.59c-1.54,0.58-3.81,1.46-4.33,3.19
						c-0.35,1.16,0.44,2.28,1.28,3.04c1.02,0.92,2.25,1.52,3.59,1.75c1,0.17,2.03,0.14,3.03,0.01c0.65-0.22,1.29-0.43,1.95-0.64
						c0.68-0.38,1.38-0.74,2.11-1.05c1.73-0.72,3.68-1.22,5.6-1.01c1.48,0.16,2.95,0.74,4.19,1.6c1.21,0.83,2.26,2.01,2.59,3.46
						c0.43,1.84-0.29,3.71-0.99,5.34c-0.44,1.02-0.95,2-1.17,3.11c0,0.02,0,0.04,0,0.07c0.24,1.23,0.46,2.47,0.82,3.68
						c0.34,1.14,0.52,3.64,1.44,3.55c0.92-0.09,0.86-1.85,2.03-2.47c1.17-0.62,1.28,0.07,2.24-0.55c0.96-0.62,1.98-3.79,2.79-6.58
						C425.43,116.15,425.52,113.06,424.24,110.36z"/>
					<g>
						<path class="st40" d="M419.81,125.94c1.03-2.25,2.72-3.79,4.62-2.33c0.62,0.48,1,1.41,1.11,2.36
							c0.11,0.95-0.04,1.92-0.27,2.82c-0.58,2.28-1.79,4.31-3.45,5.2c-0.63,0.34-1.38,0.48-1.96-0.01c-0.8-0.68-1.05-2.1-1.09-3.28
							C418.74,129.26,419.13,127.44,419.81,125.94z"/>
						<path class="st17" d="M424.21,125.96c-0.16-0.24-0.39-0.38-0.62-0.43c-0.54-0.11-1.06,0.26-1.43,0.77
							c-0.38,0.52-0.69,1.19-0.95,1.83c-0.27,0.68-0.46,1.42-0.54,2.19c-0.01,0.15,0.17,0.21,0.2,0.05
							c0.19-1.25,0.73-2.42,1.32-3.38c0.09-0.15,0.19-0.28,0.3-0.41c0.2,0.6,0.26,1.26,0.2,1.9c-0.07,0.78-0.3,1.44-0.58,2.11
							c-0.03,0.07,0.04,0.15,0.08,0.09c0.83-1.08,1.05-2.91,0.48-4.31c0.19-0.18,0.4-0.31,0.64-0.34c0.37-0.04,0.84,0.26,0.99,0.76
							c0.03,0.09,0.15,0.06,0.14-0.04C424.42,126.45,424.36,126.18,424.21,125.96z"/>
					</g>
				</g>
			</g>
			<g>
				<g>
					<path class="st17" d="M327.12,176.54c0,2.48,2.01,4.49,4.49,4.49c2.48,0,4.49-2.01,4.49-4.49c0-2.48-2.01-4.49-4.49-4.49
						C329.13,172.05,327.12,174.06,327.12,176.54z"/>
				</g>
			</g>
		</g>
	</g>
</g>
</svg>
